G04 ================== begin FILE IDENTIFICATION RECORD ==================*
G04 Layout Name:  C:/kht/work/BOOSTXL-CC2650MA/Cadence/Allegro/BOOSTXL-CC2650MA.brd*
G04 Film Name:    BOOSTXL-CC2650MA_Top*
G04 File Format:  Gerber RS274X*
G04 File Origin:  Cadence Allegro 16.6-S019*
G04 Origin Date:  Mon Apr 25 16:09:05 2016*
G04 *
G04 Layer:  BOARD GEOMETRY/OUTLINE*
G04 Layer:  DRAWING FORMAT/ANTENNA_GROUND*
G04 Layer:  VIA CLASS/TOP*
G04 Layer:  PIN/TOP*
G04 Layer:  ETCH/TOP*
G04 *
G04 Offset:    (0.000 0.000)*
G04 Mirror:    No*
G04 Mode:      Positive*
G04 Rotation:  0*
G04 FullContactRelief:  No*
G04 UndefLineWidth:     0.099*
G04 ================== end FILE IDENTIFICATION RECORD ====================*
%FSLAX44Y44*MOMM*%
%IR0*IPPOS*OFA0.00000B0.00000*MIA0B0*SFA1.00000B1.00000*%
%AMMACRO18*
4,1,41,0.0,.5,
-.256,.5,
-.293989,.49672,
-.330832,.486894,
-.365409,.470819,
-.396669,.448983,
-.423662,.422052,
-.445569,.390842,
-.461723,.356303,
-.471634,.319483,
-.475,.282,
-.475,-.282,
-.471546,-.319974,
-.461551,-.356771,
-.445318,-.391274,
-.42334,-.422434,
-.396285,-.449304,
-.364976,-.471067,
-.330363,-.487063,
-.293498,-.496806,
-.256,-.5,
.256,-.5,
.293989,-.49672,
.330832,-.486894,
.365409,-.470819,
.396669,-.448983,
.423662,-.422052,
.445569,-.390842,
.461723,-.356303,
.471634,-.319483,
.475,-.282,
.475,.282,
.471546,.319974,
.461551,.356771,
.445318,.391274,
.42334,.422434,
.396285,.449304,
.364976,.471067,
.330363,.487063,
.293498,.496806,
.256,.5,
0.0,.5,
0.0*
%
%ADD18MACRO18*%
%ADD10O,.6X2.1*%
%ADD24R,.3X1.7*%
%ADD19C,1.7*%
%ADD11C,1.27*%
%ADD17C,1.65*%
%ADD12R,1.5X1.5*%
%AMMACRO25*
4,1,41,-.25,0.0,
-.25,-.075,
-.248861,-.088024,
-.245477,-.100652,
-.239952,-.1125,
-.232453,-.123209,
-.223209,-.132453,
-.2125,-.139952,
-.200652,-.145477,
-.188024,-.148861,
-.175,-.15,
.175,-.15,
.188024,-.148861,
.200652,-.145477,
.2125,-.139952,
.223209,-.132453,
.232453,-.123209,
.239952,-.1125,
.245477,-.100652,
.248861,-.088024,
.25,-.075,
.25,.075,
.248861,.088024,
.245477,.100652,
.239952,.1125,
.232453,.123209,
.223209,.132453,
.2125,.139952,
.200652,.145477,
.188024,.148861,
.175,.15,
-.175,.15,
-.188024,.148861,
-.200652,.145477,
-.2125,.139952,
-.223209,.132453,
-.232453,.123209,
-.239952,.1125,
-.245477,.100652,
-.248861,.088024,
-.25,.075,
-.25,0.0,
0.0*
%
%ADD25MACRO25*%
%AMMACRO23*
4,1,40,-.262,-.11,
-.259873,-.134311,
-.253557,-.157883,
-.243244,-.18,
-.229246,-.19999,
-.21199,-.217246,
-.192,-.231244,
-.169883,-.241557,
-.146311,-.247873,
-.122,-.25,
.122,-.25,
.146311,-.247873,
.169883,-.241557,
.192,-.231244,
.21199,-.217246,
.229246,-.19999,
.243244,-.18,
.253557,-.157883,
.259873,-.134311,
.262,-.11,
.262,.11,
.259873,.134311,
.253557,.157883,
.243244,.18,
.229246,.19999,
.21199,.217246,
.192,.231244,
.169883,.241557,
.146311,.247873,
.122,.25,
-.122,.25,
-.146311,.247873,
-.169883,.241557,
-.192,.231244,
-.21199,.217246,
-.229246,.19999,
-.243244,.18,
-.253557,.157883,
-.259873,.134311,
-.262,.11,
-.262,-.11,
0.0*
%
%ADD23MACRO23*%
%AMMACRO21*
4,1,40,-.11,.262,
-.134311,.259873,
-.157883,.253557,
-.18,.243244,
-.19999,.229246,
-.217246,.21199,
-.231244,.192,
-.241557,.169883,
-.247873,.146311,
-.25,.122,
-.25,-.122,
-.247873,-.146311,
-.241557,-.169883,
-.231244,-.192,
-.217246,-.21199,
-.19999,-.229246,
-.18,-.243244,
-.157883,-.253557,
-.134311,-.259873,
-.11,-.262,
.11,-.262,
.134311,-.259873,
.157883,-.253557,
.18,-.243244,
.19999,-.229246,
.217246,-.21199,
.231244,-.192,
.241557,-.169883,
.247873,-.146311,
.25,-.122,
.25,.122,
.247873,.146311,
.241557,.169883,
.231244,.192,
.217246,.21199,
.19999,.229246,
.18,.243244,
.157883,.253557,
.134311,.259873,
.11,.262,
-.11,.262,
0.0*
%
%ADD21MACRO21*%
%AMMACRO16*
4,1,41,0.0,-.5,
.256,-.5,
.293989,-.49672,
.330832,-.486894,
.365409,-.470819,
.396669,-.448983,
.423662,-.422052,
.445569,-.390842,
.461723,-.356303,
.471634,-.319483,
.475,-.282,
.475,.282,
.471546,.319974,
.461551,.356771,
.445318,.391274,
.42334,.422434,
.396285,.449304,
.364976,.471067,
.330363,.487063,
.293498,.496806,
.256,.5,
-.256,.5,
-.293989,.49672,
-.330832,.486894,
-.365409,.470819,
-.396669,.448983,
-.423662,.422052,
-.445569,.390842,
-.461723,.356303,
-.471634,.319483,
-.475,.282,
-.475,-.282,
-.471546,-.319974,
-.461551,-.356771,
-.445318,-.391274,
-.42334,-.422434,
-.396285,-.449304,
-.364976,-.471067,
-.330363,-.487063,
-.293498,-.496806,
-.256,-.5,
0.0,-.5,
0.0*
%
%ADD16MACRO16*%
%AMMACRO26*
4,1,45,0.0,.376,
-.206,.376,
-.235432,.373522,
-.263987,.365972,
-.290796,.353577,
-.315046,.336715,
-.336,.315899,
-.353021,.29176,
-.365591,.265032,
-.373329,.236528,
-.376,.207113,
-.376,.206,
-.376,-.206,
-.373522,-.235432,
-.365972,-.263987,
-.353577,-.290796,
-.336715,-.315046,
-.315899,-.336,
-.29176,-.353021,
-.265032,-.365591,
-.236528,-.373329,
-.207113,-.376,
-.206,-.376,
.206,-.376,
.235432,-.373522,
.263987,-.365972,
.290796,-.353577,
.315046,-.336715,
.336,-.315899,
.353021,-.29176,
.365591,-.265032,
.373329,-.236528,
.376,-.207113,
.376,-.206,
.376,.206,
.373522,.235432,
.365972,.263987,
.353577,.290796,
.336715,.315046,
.315899,.336,
.29176,.353021,
.265032,.365591,
.236528,.373329,
.207113,.376,
.206,.376,
0.0,.376,
0.0*
%
%ADD26MACRO26*%
%ADD15C,.4*%
%ADD14R,.9X.55*%
%ADD13R,.55X.9*%
%AMMACRO22*
4,1,40,.262,.11,
.259873,.134311,
.253557,.157883,
.243244,.18,
.229246,.19999,
.21199,.217246,
.192,.231244,
.169883,.241557,
.146311,.247873,
.122,.25,
-.122,.25,
-.146311,.247873,
-.169883,.241557,
-.192,.231244,
-.21199,.217246,
-.229246,.19999,
-.243244,.18,
-.253557,.157883,
-.259873,.134311,
-.262,.11,
-.262,-.11,
-.259873,-.134311,
-.253557,-.157883,
-.243244,-.18,
-.229246,-.19999,
-.21199,-.217246,
-.192,-.231244,
-.169883,-.241557,
-.146311,-.247873,
-.122,-.25,
.122,-.25,
.146311,-.247873,
.169883,-.241557,
.192,-.231244,
.21199,-.217246,
.229246,-.19999,
.243244,-.18,
.253557,-.157883,
.259873,-.134311,
.262,-.11,
.262,.11,
0.0*
%
%ADD22MACRO22*%
%AMMACRO20*
4,1,40,.11,-.262,
.134311,-.259873,
.157883,-.253557,
.18,-.243244,
.19999,-.229246,
.217246,-.21199,
.231244,-.192,
.241557,-.169883,
.247873,-.146311,
.25,-.122,
.25,.122,
.247873,.146311,
.241557,.169883,
.231244,.192,
.217246,.21199,
.19999,.229246,
.18,.243244,
.157883,.253557,
.134311,.259873,
.11,.262,
-.11,.262,
-.134311,.259873,
-.157883,.253557,
-.18,.243244,
-.19999,.229246,
-.217246,.21199,
-.231244,.192,
-.241557,.169883,
-.247873,.146311,
-.25,.122,
-.25,-.122,
-.247873,-.146311,
-.241557,-.169883,
-.231244,-.192,
-.217246,-.21199,
-.19999,-.229246,
-.18,-.243244,
-.157883,-.253557,
-.134311,-.259873,
-.11,-.262,
.11,-.262,
0.0*
%
%ADD20MACRO20*%
%ADD27C,.3*%
%ADD28C,.099*%
%ADD29C,.15*%
%ADD31C,2.004*%
%ADD30O,.904X2.404*%
%ADD32C,1.954*%
G75*
%LPD*%
G75*
G36*
G01X2023480Y2345640D02*
G03X2026920Y2341980I3518J-140D01*
G02X2027600Y2341690I-24J-999D01*
G01X2050440Y2318850D01*
G02X2050730Y2318150I-710J-704D01*
G01Y2302500D01*
G03X2051020Y2301800I1000J4D01*
G01X2054970Y2297850D01*
G02X2055150Y2296690I-709J-704D01*
G01Y2296680D01*
G03X2055530Y2287040I8680J-4485D01*
G02X2055560Y2286020I-844J-535D01*
G01X2054700Y2284480D01*
G02X2053830Y2283970I-872J490D01*
G01X2037150D01*
G02X2036450Y2284260I4J1000D01*
G01X2021730Y2298980D01*
G03X2021030Y2299270I-704J-710D01*
G01X2007270D01*
G02X2006270Y2300270I0J1000D01*
G01Y2312230D01*
G02X2007270Y2313230I1000J0D01*
G01X2007880D01*
G02X2008570Y2312950I-4J-999D01*
G03Y2318050I2430J2550D01*
G02X2007880Y2317770I-694J719D01*
G01X2007270D01*
G02X2006270Y2318770I0J1000D01*
G01Y2346730D01*
G02X2007270Y2347730I1000J0D01*
G01X2021480D01*
G02X2022200Y2347420I-4J-1000D01*
G01X2023200Y2346380D01*
G02X2023480Y2345640I-718J-695D01*
G37*
G36*
G01X2176570Y2231480D02*
G03X2177960Y2231750I1J3709D01*
G02X2178910Y2231660I392J-921D01*
G01X2180290Y2230730D01*
G02X2180730Y2229900I-561J-829D01*
G01Y2211850D01*
G02X2180440Y2211150I-1000J4D01*
G01X2173600Y2204310D01*
G02X2172900Y2204020I-704J710D01*
G01X1965980D01*
G02X1965280Y2204310I4J1000D01*
G01X1963580Y2206010D01*
G02X1963290Y2206660I708J706D01*
G01X1963210Y2208000D01*
G02X1963430Y2208680I999J52D01*
G03X1964420Y2211500I-3521J2820D01*
G01Y2226500D01*
G03X1962580Y2230140I-4520J0D01*
G02X1962170Y2230950I590J808D01*
G01Y2245980D01*
G02X1962450Y2246670I999J-4D01*
G03X1962630Y2251320I-2550J2427D01*
G01X1962510Y2251470D01*
X1962400Y2251830D01*
X1962540Y2253440D01*
G02X1962860Y2254090I995J-86D01*
G01X1962870Y2254100D01*
G03X1964420Y2257500I-2967J3406D01*
G01Y2272500D01*
G03X1955380I-4520J0D01*
G01Y2257500D01*
G03X1956920Y2254100I4519J-2D01*
G02X1956940Y2254090I-420J-865D01*
G02X1957260Y2253440I-675J-736D01*
G01X1957400Y2251830D01*
X1957290Y2251470D01*
X1957170Y2251320D01*
G03X1956550Y2250180I2729J-2223D01*
G01Y2250160D01*
G02X1956060Y2249590I-949J320D01*
G01X1954620Y2248840D01*
X1954230Y2248800D01*
X1954040Y2248860D01*
G03X1950570Y2248050I-1045J-3361D01*
G02X1949880Y2247770I-694J719D01*
G01X1943970D01*
G03X1943270Y2247480I4J-1000D01*
G01X1939970Y2244180D01*
G03X1939680Y2243480I710J-704D01*
G01Y2203520D01*
G03X1939970Y2202820I1000J4D01*
G01X1945580Y2197210D01*
G02X1945800Y2196120I-707J-710D01*
G01X1945790D01*
G02X1944870Y2195500I-924J378D01*
G01X1895500D01*
G02X1894500Y2196500I0J1000D01*
G01Y2282730D01*
G02X1895500Y2283730I1000J0D01*
G01X1930230D01*
G02X1931230Y2282730I0J-1000D01*
G01Y2272620D01*
G02X1930950Y2271930I-999J4D01*
G03X1936050I2550J-2430D01*
G02X1935770Y2272620I719J694D01*
G01Y2274060D01*
G02X1936770Y2275060I1000J0D01*
G01X1937040D01*
X1937260Y2274950D01*
G02X1937280Y2274930I-668J-688D01*
G03X1940070Y2274650I1717J3071D01*
G01X1940080D01*
X1940300Y2274720D01*
X1940780Y2274640D01*
X1942480Y2273340D01*
X1942690Y2272910D01*
X1942680Y2272660D01*
Y2257500D01*
G03X1951720I4520J0D01*
G01Y2272500D01*
G03X1945340Y2276620I-4520J0D01*
G02X1944410Y2276670I-418J908D01*
G01X1943000Y2277500D01*
G02X1942510Y2278290I508J862D01*
G03X1941720Y2280230I-3507J-297D01*
G01X1941270Y2280790D01*
Y2281060D01*
X1943650Y2283440D01*
G02X1944350Y2283730I704J-710D01*
G01X1993400D01*
G02X1994100Y2283440I-4J-1000D01*
G01X1997410Y2280130D01*
G02X1997680Y2279180I-703J-713D01*
G01X1997210Y2277250D01*
X1996860Y2276880D01*
X1996610Y2276800D01*
G03X1993480Y2272500I1389J-4300D01*
G01Y2257500D01*
G03X1994710Y2254410I4511J6D01*
G02X1994980Y2253720I-732J-684D01*
G01Y2238940D01*
X1994920Y2238710D01*
X1994870Y2238610D01*
G03X1999290Y2233730I3130J-1607D01*
G01X1999570Y2233840D01*
X2000150Y2233720D01*
X2000370Y2233500D01*
G02Y2232080I-704J-710D01*
G01X1999370Y2231080D01*
X1998910Y2230930D01*
X1998680Y2230970D01*
G03X1993480Y2226500I-679J-4470D01*
G01Y2211500D01*
G03X2002520I4520J0D01*
G01Y2226500D01*
G03X2002470Y2227180I-4521J9D01*
G01X2002430Y2227410D01*
X2002580Y2227870D01*
X2005980Y2231270D01*
G03X2006270Y2231970I-710J704D01*
G01Y2277280D01*
G03X2005980Y2277980I-1000J-4D01*
G01X1997310Y2286650D01*
G02X1997020Y2287350I710J704D01*
G01Y2290730D01*
G02X1998020Y2291730I1000J0D01*
G01X2011610D01*
G02X2012390Y2291350I-4J-999D01*
G01X2013380Y2290120D01*
G02X2013570Y2289290I-788J-617D01*
G01Y2289280D01*
G03X2016920Y2284980I3432J-781D01*
G01X2017120Y2284970D01*
X2017460Y2284830D01*
X2050440Y2251850D01*
G02X2050730Y2251150I-710J-704D01*
G01Y2235970D01*
G03X2051020Y2235270I1000J4D01*
G01X2058270Y2228020D01*
G03X2058970Y2227730I704J710D01*
G01X2062800D01*
G02X2063800Y2226730I0J-1000D01*
G01Y2226720D01*
G02X2062900Y2225720I-1000J-5D01*
G01X2062890D01*
G03X2072510Y2220480I941J-9722D01*
G02X2072690Y2221650I885J463D01*
G01X2074980Y2223940D01*
G02X2075680Y2224230I704J-710D01*
G01X2079230D01*
G02X2080110Y2223720I7J-1002D01*
G01X2081090Y2221940D01*
X2081080Y2221390D01*
X2080930Y2221160D01*
G03X2097530I8300J-5160D01*
G01X2097380Y2221390D01*
X2097370Y2221940D01*
X2098350Y2223720D01*
G02X2099230Y2224230I873J-492D01*
G01X2129280D01*
G03X2129980Y2224520I-4J1000D01*
G01X2145730Y2240270D01*
G02X2146570Y2240550I704J-711D01*
G01X2148410Y2240290D01*
X2148790Y2240020D01*
X2148910Y2239810D01*
G03X2151920Y2237980I3089J1690D01*
G01X2152120Y2237970D01*
X2152460Y2237830D01*
X2154270Y2236020D01*
G03X2154970Y2235730I704J710D01*
G01X2166750D01*
G02X2167750Y2234830I5J-1000D01*
G01Y2234820D01*
G03X2171430Y2231480I3689J367D01*
G01X2176570D01*
G37*
G36*
G01X1894500Y2293270D02*
Y2383730D01*
G02X1895500Y2384730I1000J0D01*
G01X1985610D01*
G02X1986390Y2384350I-4J-999D01*
G01X1987370Y2383120D01*
G02X1987570Y2382280I-777J-629D01*
G03X1994430I3430J-780D01*
G02X1994630Y2383120I977J211D01*
G01X1995610Y2384350D01*
G02X1996390Y2384730I784J-619D01*
G01X1996440D01*
X1997020Y2385310D01*
Y2388100D01*
G02X1997640Y2389030I1001J4D01*
G02X1998730Y2388810I380J-926D01*
G01X1999440Y2388100D01*
G02X1999730Y2387400I-710J-704D01*
G01Y2380020D01*
G02X1998730Y2379020I-1000J0D01*
G03X1997730Y2378020I0J-1000D01*
G01Y2341770D01*
G02X1996730Y2340770I-1000J0D01*
G01X1988450D01*
G03X1987750Y2340480I4J-1000D01*
G01X1980020Y2332750D01*
G03X1979730Y2332050I710J-704D01*
G01Y2330620D01*
G02X1979450Y2329930I-999J4D01*
G03X1984910Y2329490I2552J-2428D01*
G02X1984730Y2330100I818J573D01*
G01X1984760Y2330700D01*
G02X1985050Y2331360I999J-45D01*
G01X1989630Y2335940D01*
G02X1990330Y2336230I704J-710D01*
G01X1996730D01*
G02X1997730Y2335230I0J-1000D01*
G01Y2332480D01*
G02X1997390Y2331730I-1000J1D01*
G01X1996250Y2330730D01*
G02X1995460Y2330490I-660J751D01*
G03Y2323510I-460J-3490D01*
G02X1996250Y2323270I130J-991D01*
G01X1997390Y2322270D01*
G02X1997730Y2321520I-660J-751D01*
G01Y2309390D01*
G02X1997350Y2308610I-999J4D01*
G01X1996120Y2307630D01*
G02X1995280Y2307430I-629J777D01*
G03X1991440Y2302270I-777J-3431D01*
G02X1991430Y2301270I-873J-491D01*
G01X1990550Y2299770D01*
G02X1989690Y2299270I-865J499D01*
G01X1971700D01*
G03X1971000Y2298980I4J-1000D01*
G01X1966020Y2294000D01*
G03X1965730Y2293300I710J-704D01*
G01Y2293270D01*
G02X1964730Y2292270I-1000J0D01*
G01X1962020D01*
G02X1961300Y2292580I4J1000D01*
G01X1960300Y2293620D01*
G02X1960020Y2294360I718J695D01*
G03X1952980I-3520J140D01*
G02X1952700Y2293620I-998J-45D01*
G01X1951700Y2292580D01*
G02X1950980Y2292270I-724J690D01*
G01X1895500D01*
G02X1894500Y2293270I0J1000D01*
G37*
G36*
G01X2042740Y2357050D02*
X2040850Y2358940D01*
G03X2040150Y2359230I-704J-710D01*
G01X2037390D01*
G03X2037170Y2359200I24J-999D01*
G02X2036240Y2359470I-221J977D01*
G01X2032230Y2363480D01*
G03X2031530Y2363770I-704J-710D01*
G01X2007270D01*
G02X2006270Y2364770I0J1000D01*
G01Y2369730D01*
G02X2007270Y2370730I1000J0D01*
G01X2050530D01*
G03X2051230Y2371020I-4J1000D01*
G01X2052990Y2372780D01*
G02X2054410I710J-705D01*
G02X2054640Y2371730I-708J-705D01*
G03X2058200Y2360410I9188J-3330D01*
G01X2058210D01*
G02X2058580Y2359290I-581J-813D01*
G01X2058000Y2357460D01*
G02X2057050Y2356760I-953J299D01*
G01X2043440D01*
G02X2042740Y2357050I4J1000D01*
G37*
G36*
G01X1958770Y2394270D02*
Y2410130D01*
G02X1959060Y2410830I1000J-4D01*
G01X1975670Y2427440D01*
G02X1976370Y2427730I704J-710D01*
G01X1987100D01*
G02X1988030Y2427110I4J-1001D01*
G02X1987810Y2426020I-926J-380D01*
G01X1966020Y2404230D01*
G03X1965730Y2403530I710J-704D01*
G01Y2394270D01*
G02X1964730Y2393270I-1000J0D01*
G01X1959770D01*
G02X1958770Y2394270I0J1000D01*
G37*
G36*
G01X1947270D02*
Y2424660D01*
G02X1947560Y2425360I1000J-4D01*
G01X1953640Y2431440D01*
G02X1954340Y2431730I704J-710D01*
G01X1971120D01*
G02X1972050Y2431110I4J-1001D01*
G02X1971830Y2430020I-926J-380D01*
G01X1954520Y2412710D01*
G03X1954230Y2412010I710J-704D01*
G01Y2394270D01*
G02X1953230Y2393270I-1000J0D01*
G01X1948270D01*
G02X1947270Y2394270I0J1000D01*
G37*
G36*
G01X1932670Y2457980D02*
X2070520D01*
G02X2071440Y2457360I-4J-998D01*
G01X2071450D01*
G02X2071230Y2456270I-927J-380D01*
G01X2068760Y2453800D01*
G02X2067660Y2453590I-705J708D01*
G03X2055590Y2439360I-3826J-8988D01*
G02X2055620Y2438340I-846J-535D01*
G01X2054770Y2436790D01*
G02X2053890Y2436270I-877J480D01*
G01X1952460D01*
G03X1951760Y2435980I4J-1000D01*
G01X1943020Y2427240D01*
G03X1942730Y2426540I710J-704D01*
G01Y2394270D01*
G02X1941730Y2393270I-1000J0D01*
G01X1926020D01*
G02X1925020Y2394270I0J1000D01*
G01Y2450330D01*
G02X1925310Y2451040I1000J6D01*
G01X1931960Y2457690D01*
G02X1932670Y2457980I704J-710D01*
G37*
G36*
G01X2006270Y2376270D02*
Y2378020D01*
G03X2005270Y2379020I-1000J0D01*
G02X2004270Y2380020I0J1000D01*
G01Y2389280D01*
G03X2003980Y2389980I-1000J-4D01*
G01X1997770Y2396190D01*
G02Y2397610I704J710D01*
G02X1998890Y2397820I712J-703D01*
G01X1998900Y2397810D01*
G03X2000430Y2397480I1529J3379D01*
G01X2005570D01*
G03X2009250Y2400820I-9J3707D01*
G01Y2400830D01*
G02X2010250Y2401730I996J-101D01*
G01X2021640D01*
G02X2022340Y2401440I-4J-1000D01*
G01X2042760Y2381020D01*
G03X2043460Y2380730I704J710D01*
G01X2052100D01*
G02X2053030Y2380110I4J-1001D01*
G02X2052810Y2379020I-926J-380D01*
G01X2049350Y2375560D01*
G02X2048650Y2375270I-704J710D01*
G01X2007270D01*
G02X2006270Y2376270I0J1000D01*
G37*
G36*
G01X2044640Y2385560D02*
X2024220Y2405980D01*
G03X2023520Y2406270I-704J-710D01*
G01X2010250D01*
G02X2009250Y2407170I-4J1001D01*
G01Y2407180D01*
G03X2005570Y2410520I-3689J-367D01*
G01X2000430D01*
G03X1996730Y2406820I7J-3707D01*
G01Y2401180D01*
G03X1997060Y2399650I3709J-1D01*
G01X1997070Y2399640D01*
G02X1996860Y2398520I-913J-408D01*
G02X1995440I-710J704D01*
G01X1993560Y2400400D01*
G02X1993270Y2401120I710J704D01*
G01Y2406820D01*
G03X1989570Y2410520I-3707J-7D01*
G01X1986200D01*
G02X1985270Y2411140I-4J1001D01*
G02X1985490Y2412230I926J380D01*
G01X1993700Y2420440D01*
G02X1994400Y2420730I704J-710D01*
G01X2021150D01*
G02X2021850Y2420440I-4J-1000D01*
G01X2025190Y2417100D01*
G02X2025480Y2416420I-709J-704D01*
G03X2029080Y2420020I3520J80D01*
G02X2028400Y2420310I24J999D01*
G01X2026690Y2422020D01*
G02X2026470Y2423110I706J710D01*
G02X2027400Y2423730I926J-381D01*
G01X2040650D01*
G02X2041350Y2423440I-4J-1000D01*
G01X2058770Y2406020D01*
G03X2059470Y2405730I704J710D01*
G01X2109650D01*
G02X2110350Y2405440I-4J-1000D01*
G01X2128810Y2386980D01*
G02X2129030Y2385890I-706J-710D01*
G02X2128100Y2385270I-926J381D01*
G01X2099040D01*
G02X2098160Y2385800I2J999D01*
G01X2097320Y2387360D01*
G02X2097370Y2388390I879J474D01*
G03X2082620Y2401000I-8133J5418D01*
G01X2082520Y2400910D01*
X2082400Y2400840D01*
G02X2081050Y2401280I-456J891D01*
G01X2080590Y2402180D01*
G03X2079700Y2402730I-892J-449D01*
G01X2076380D01*
G03X2075680Y2402440I4J-1000D01*
G01X2073760Y2400520D01*
G02X2073040Y2400230I-704J709D01*
G01X2071600Y2400240D01*
G02X2070890Y2400550I15J1002D01*
G03X2055690Y2388390I-7064J-6750D01*
G02X2055740Y2387360I-829J-556D01*
G01X2054900Y2385800D01*
G02X2054020Y2385270I-882J469D01*
G01X2045340D01*
G02X2044640Y2385560I4J1000D01*
G37*
G36*
G01X1894500Y2394270D02*
Y2463500D01*
G02X1895500Y2464500I1000J0D01*
G01X1927810D01*
G02X1928730Y2463880I-4J-998D01*
G01X1928740D01*
G02X1928520Y2462790I-927J-380D01*
G01X1919270Y2453540D01*
G03X1918980Y2452840I710J-704D01*
G01Y2394270D01*
G02X1917980Y2393270I-1000J0D01*
G01X1895500D01*
G02X1894500Y2394270I0J1000D01*
G37*
G36*
G01X2097010Y2235490D02*
G03X2097530Y2246560I-7779J5913D01*
G02X2097500Y2247580I844J535D01*
G01X2098360Y2249120D01*
G02X2099230Y2249630I872J-490D01*
G01X2142000D01*
G02X2142930Y2249010I4J-1001D01*
G02X2142710Y2247920I-926J-380D01*
G01X2127350Y2232560D01*
G02X2126650Y2232270I-704J710D01*
G01X2098610D01*
G02X2097720Y2232830I7J998D01*
G01X2096910Y2234440D01*
G02X2097010Y2235490I897J444D01*
G37*
G36*
G01X2096750Y2260560D02*
G03X2097530Y2271960I-7519J6241D01*
G02X2097500Y2272980I844J535D01*
G01X2098360Y2274520D01*
G02X2099230Y2275030I872J-490D01*
G01X2157400D01*
G02X2158330Y2274410I4J-1001D01*
G02X2158110Y2273320I-926J-380D01*
G01X2142350Y2257560D01*
G02X2141650Y2257270I-704J710D01*
G01X2098290D01*
G02X2097390Y2257840I3J1000D01*
G01X2096610Y2259500D01*
G02X2096750Y2260560I907J419D01*
G37*
G36*
G01X2147480Y2296420D02*
G03X2151080Y2300020I3520J80D01*
G02X2150400Y2300310I24J999D01*
G01X2148690Y2302020D01*
G02X2148470Y2303110I706J710D01*
G02X2149400Y2303730I926J-381D01*
G01X2167730D01*
G02X2168730Y2302730I0J-1000D01*
G01Y2297180D01*
Y2297120D01*
G02X2168440Y2296400I-1000J-16D01*
G01X2156300Y2284260D01*
G02X2155600Y2283970I-704J710D01*
G01X2099230D01*
G02X2098360Y2284480I2J1000D01*
G01X2097500Y2286020D01*
G02X2097530Y2287040I874J485D01*
G03Y2297360I-8300J5160D01*
G02X2097500Y2298380I844J535D01*
G01X2098360Y2299920D01*
G02X2099230Y2300430I872J-490D01*
G01X2143450D01*
G02X2144150Y2300140I-4J-1000D01*
G01X2147190Y2297100D01*
G02X2147480Y2296420I-709J-704D01*
G37*
G36*
G01X2220540Y2219480D02*
G02X2220250Y2220290I704J709D01*
G01Y2220300D01*
G03X2220270Y2220680I-3688J385D01*
G01Y2226320D01*
G03X2219530Y2228540I-3708J-3D01*
G01X2219520D01*
G02X2219320Y2229140I803J601D01*
G01Y2230360D01*
G02X2219520Y2230960I1003J-1D01*
G01X2219530D01*
G03X2220270Y2233180I-2968J2223D01*
G01Y2238820D01*
G03X2217120Y2242480I-3708J-6D01*
G02X2216270Y2243470I149J988D01*
G01Y2249540D01*
G03X2215980Y2250240I-1000J-4D01*
G01X2196560Y2269660D01*
G02X2196270Y2270360I710J704D01*
G01Y2271820D01*
G03X2192570Y2275520I-3707J-7D01*
G01X2187430D01*
G03X2186510Y2275400I16J-3707D01*
G01X2186500D01*
G02X2185550Y2275660I-245J969D01*
G01X2185540Y2275670D01*
G02Y2277080I709J705D01*
G01X2187650Y2279190D01*
G02X2188370Y2279480I704J-710D01*
G01X2193570D01*
G03X2195910Y2280320I-10J3707D01*
G02X2196590Y2280550I640J-771D01*
G01X2197920Y2280500D01*
G02X2198570Y2280220I-45J-999D01*
G03X2201080Y2286290I2428J2550D01*
G02X2200400Y2286580I24J999D01*
G01X2199000Y2287980D01*
G03X2198300Y2288270I-704J-710D01*
G01X2198250D01*
G02X2197250Y2289170I-4J1001D01*
G01Y2289180D01*
G03X2196090Y2291530I-3691J-360D01*
G02X2195770Y2292260I677J732D01*
G01Y2293740D01*
G02X2196090Y2294470I997J-2D01*
G03X2197270Y2297180I-2529J2713D01*
G01Y2302820D01*
G03X2193570Y2306520I-3707J-7D01*
G01X2188430D01*
X2188370D01*
G02X2187650Y2306810I-16J1000D01*
G01X2184480Y2309980D01*
G03X2183780Y2310270I-704J-710D01*
G01X2182950D01*
G02X2182130Y2310690I-5J1001D01*
G01X2181180Y2312040D01*
G02X2181060Y2312950I820J571D01*
G03X2181270Y2314180I-3498J1230D01*
G01Y2319820D01*
G03X2180940Y2321350I-3709J1D01*
G01X2180930Y2321360D01*
G02X2181140Y2322480I913J408D01*
G02X2182560I710J-704D01*
G01X2184440Y2320600D01*
G02X2184730Y2319880I-710J-704D01*
G01Y2314180D01*
G03X2188430Y2310480I3707J7D01*
G01X2193570D01*
G03X2197270Y2314180I-7J3707D01*
G01Y2319820D01*
G03X2193570Y2323520I-3707J-7D01*
G01X2188430D01*
X2188370D01*
G02X2187650Y2323810I-16J1000D01*
G01X2182940Y2328520D01*
G02X2182720Y2329610I706J710D01*
G02X2183650Y2330230I926J-381D01*
G01X2206530D01*
G03X2207230Y2330520I-4J1000D01*
G01X2272650Y2395940D01*
G02X2273350Y2396230I704J-710D01*
G01X2470640D01*
G02X2471340Y2395940I-4J-1000D01*
G01X2473420Y2393860D01*
G02X2473720Y2393150I-701J-715D01*
G01X2473730Y2390180D01*
Y2390170D01*
Y2344970D01*
G03X2474020Y2344270I1000J4D01*
G01X2486830Y2331460D01*
G02Y2330040I-704J-710D01*
G01X2466850Y2310060D01*
G02X2466150Y2309770I-704J710D01*
G01X2258970D01*
G03X2258270Y2309480I4J-1000D01*
G01X2240020Y2291230D01*
G03X2239730Y2290530I710J-704D01*
G01Y2257950D01*
G03X2240020Y2257250I1000J4D01*
G01X2240040Y2257230D01*
G02X2240260Y2256140I-706J-710D01*
G02X2239330Y2255520I-926J381D01*
G01X2238020D01*
G03X2236010Y2254710I7J-2917D01*
G02X2235310Y2254440I-684J731D01*
G01X2233930D01*
G02X2233230Y2254710I-16J1001D01*
G03X2231220Y2255520I-2017J-2107D01*
G01X2228780D01*
G03X2225860Y2252600I0J-2920D01*
G01Y2250400D01*
G03X2226690Y2248360I2922J0D01*
G02X2226980Y2247660I-710J-704D01*
G01Y2243290D01*
G02X2226290Y2242340I-999J0D01*
G03X2223730Y2238820I1148J-3526D01*
G01Y2233180D01*
G03X2224470Y2230960I3708J3D01*
G01X2224480D01*
G02X2224680Y2230360I-803J-601D01*
G01Y2229140D01*
G02X2224480Y2228540I-1003J1D01*
G01X2224470D01*
G03X2223730Y2226320I2968J-2223D01*
G01Y2221670D01*
G02X2223440Y2220960I-1000J-6D01*
G01X2221960Y2219480D01*
G02X2220540I-710J704D01*
G37*
G36*
G01X2106650Y2319560D02*
X2097690Y2328520D01*
G02X2097470Y2329610I706J710D01*
G02X2098400Y2330230I926J-381D01*
G01X2110610D01*
G02X2111390Y2329850I-4J-999D01*
G01X2112370Y2328620D01*
G02X2112570Y2327780I-777J-629D01*
G03X2118430Y2324450I3432J-781D01*
G02X2119120Y2324730I694J-719D01*
G01X2167520D01*
G02X2168390Y2324230I3J-1002D01*
G01X2169250Y2322700D01*
G02Y2321700I-865J-500D01*
G03X2168750Y2320180I3187J-1891D01*
G01Y2320170D01*
G02X2167750Y2319270I-996J101D01*
G01X2107350D01*
G02X2106650Y2319560I4J1000D01*
G37*
G36*
G01X2098360Y2335280D02*
X2097500Y2336820D01*
G02X2097530Y2337840I874J485D01*
G03X2096960Y2348980I-8299J5160D01*
G01X2096950D01*
G02X2096850Y2350040I794J610D01*
G01X2097640Y2351660D01*
G02X2098540Y2352220I899J-441D01*
G01X2148650D01*
G02X2149350Y2351930I-4J-1000D01*
G01X2159260Y2342020D01*
G03X2159960Y2341730I704J710D01*
G01X2167750D01*
G02X2168750Y2340830I4J-1001D01*
G01Y2340820D01*
G03X2172430Y2337480I3689J367D01*
G01X2177570D01*
G03X2181270Y2341180I-7J3707D01*
G01Y2346820D01*
G03X2181060Y2348050I-3708J0D01*
G02X2181180Y2348960I940J339D01*
G01X2182130Y2350310D01*
G02X2182950Y2350730I815J-581D01*
G01X2183050D01*
G02X2183870Y2350310I5J-1001D01*
G01X2184820Y2348960D01*
G02X2184940Y2348050I-820J-571D01*
G03X2184730Y2346820I3498J-1230D01*
G01Y2341180D01*
G03X2188430Y2337480I3707J7D01*
G01X2193570D01*
G03X2197250Y2340820I-9J3707D01*
G01Y2340830D01*
G02X2198250Y2341730I996J-101D01*
G01X2209600D01*
G02X2210530Y2341110I4J-1001D01*
G02X2210310Y2340020I-926J-380D01*
G01X2205350Y2335060D01*
G02X2204650Y2334770I-704J710D01*
G01X2099230D01*
G02X2098360Y2335280I2J1000D01*
G37*
G36*
G01X2094850Y2360410D02*
X2094860D01*
G03X2096880Y2374470I-5631J7984D01*
G02X2096770Y2375530I787J617D01*
G01X2097560Y2377170D01*
G02X2098460Y2377730I898J-439D01*
G01X2128650D01*
G02X2129350Y2377440I-4J-1000D01*
G01X2148320Y2358470D01*
G02X2148540Y2357380I-706J-710D01*
G02X2147610Y2356760I-926J381D01*
G01X2096010D01*
G02X2095060Y2357460I3J999D01*
G01X2094480Y2359290D01*
G02X2094850Y2360410I951J307D01*
G37*
G36*
G01X2141920Y2390270D02*
X2141850D01*
G02X2141150Y2390560I4J1000D01*
G01X2096490Y2435220D01*
G02X2096200Y2435910I709J704D01*
G01X2096170Y2437300D01*
G02X2096430Y2438000I1000J27D01*
G03X2097450Y2449880I-7200J6602D01*
G01Y2449890D01*
G02X2097410Y2450910I838J544D01*
G01X2098260Y2452460D01*
G02X2099140Y2452980I877J-480D01*
G01X2149930D01*
G02X2150640Y2452690I6J-1000D01*
G01X2154400Y2448930D01*
G02X2154610Y2447830I-708J-705D01*
G03X2159950Y2434940I8989J-3827D01*
G02X2160580Y2434010I-371J-930D01*
G01Y2422810D01*
G03X2160870Y2422110I1000J4D01*
G01X2164440Y2418540D01*
G02X2164730Y2417830I-710J-704D01*
G01Y2414170D01*
G02X2164440Y2413460I-1000J-6D01*
G01X2161270Y2410290D01*
G03X2160980Y2409590I710J-704D01*
G01Y2406260D01*
G02X2160350Y2405330I-1000J-1D01*
G01X2160340D01*
G03X2159990Y2405180I3771J-9282D01*
G02X2158880Y2405390I-401J917D01*
G01X2158750Y2405520D01*
X2151840D01*
G02X2151140Y2405810I4J1000D01*
G03X2149100Y2406640I-2040J-2092D01*
G01X2146900D01*
G03X2143980Y2403720I0J-2920D01*
G01Y2401280D01*
G03X2144790Y2399270I2917J7D01*
G02X2145060Y2398570I-731J-684D01*
G01Y2397190D01*
G02X2144790Y2396490I-1001J-16D01*
G03X2143980Y2394480I2107J-2017D01*
G01Y2392740D01*
G02X2143690Y2392040I-1000J4D01*
G01X2141920Y2390270D01*
G37*
G36*
G01X2246460Y2235310D02*
X2235620Y2246150D01*
G02Y2247560I711J705D01*
G01X2235630Y2247570D01*
G02X2236770Y2247760I704J-711D01*
G03X2238020Y2247480I1250J2650D01*
G01X2240460D01*
G03X2242330Y2248160I0J2911D01*
G02X2242970Y2248390I638J-770D01*
G01X2242980D01*
G02X2243980Y2247390I0J-1000D01*
G01Y2246250D01*
G03X2246250Y2243980I2270J0D01*
G01X2249750D01*
G03X2252020Y2246250I0J2270D01*
G01Y2247750D01*
G03X2251780Y2248770I-2271J4D01*
G02X2251670Y2249220I889J456D01*
G01Y2249780D01*
G02X2251780Y2250230I999J-6D01*
G03X2252020Y2251250I-2031J1016D01*
G01Y2252750D01*
G03X2251780Y2253770I-2271J4D01*
G02X2251670Y2254220I889J456D01*
G01Y2254780D01*
G02X2251780Y2255230I999J-6D01*
G03X2252020Y2256250I-2031J1016D01*
G01Y2257750D01*
G03X2251780Y2258770I-2271J4D01*
G02X2251670Y2259220I889J456D01*
G01Y2259780D01*
G02X2251780Y2260230I999J-6D01*
G03X2252020Y2261250I-2031J1016D01*
G01Y2262750D01*
G03X2250810Y2264760I-2274J0D01*
G01X2250800D01*
G02X2250270Y2265650I471J883D01*
G01Y2266380D01*
G02X2250550Y2267070I999J-4D01*
G03X2246900Y2272850I-2546J2435D01*
G01Y2272840D01*
G02X2246000Y2272990I-304J954D01*
G01X2244680Y2273940D01*
G02X2244270Y2274750I591J808D01*
G01Y2288650D01*
G02X2244560Y2289350I1000J-4D01*
G01X2260150Y2304940D01*
G02X2260850Y2305230I704J-710D01*
G01X2468030D01*
G03X2468730Y2305520I-4J1000D01*
G01X2482640Y2319430D01*
G02X2483740Y2319640I705J-709D01*
G01X2485460Y2318890D01*
G02X2486070Y2317940I-390J-921D01*
G03X2487150Y2313120I9762J-344D01*
G01Y2313110D01*
G02X2486970Y2311950I-889J-456D01*
G01X2466520Y2291500D01*
G03X2466230Y2290800I710J-704D01*
G01Y2266350D01*
G02X2465940Y2265650I-1000J4D01*
G01X2453850Y2253560D01*
G02X2453150Y2253270I-704J710D01*
G01X2383250D01*
G02X2382250Y2254170I-4J1001D01*
G01Y2254180D01*
G03X2378570Y2257520I-3689J-367D01*
G01X2373430D01*
X2373370D01*
G02X2372650Y2257810I-16J1000D01*
G01X2369480Y2260980D01*
G03X2368780Y2261270I-704J-710D01*
G01X2297970D01*
G03X2297270Y2260980I4J-1000D01*
G01X2294230Y2257940D01*
G02X2293140Y2257720I-710J706D01*
G02X2292520Y2258650I381J926D01*
G01Y2261220D01*
G03X2292230Y2261920I-1000J-4D01*
G01X2288310Y2265840D01*
G02X2288020Y2266550I710J704D01*
G01Y2267220D01*
G03X2285100Y2270140I-2920J0D01*
G01X2284670D01*
G02X2283960Y2270430I-6J1000D01*
G01X2277660Y2276730D01*
G03X2276960Y2277020I-704J-710D01*
G01X2275840D01*
G02X2275170Y2277270I-8J1001D01*
G01Y2277280D01*
G03X2273220Y2278020I-1944J-2182D01*
G01X2270780D01*
G03X2268770Y2277210I7J-2917D01*
G02X2268070Y2276940I-684J731D01*
G01X2266690D01*
G02X2265990Y2277210I-16J1001D01*
G03X2263980Y2278020I-2017J-2107D01*
G01X2261540D01*
G03X2258620Y2275100I0J-2920D01*
G01Y2272900D01*
G03X2261540Y2269980I2920J0D01*
G01X2263980D01*
G03X2266510Y2271440I0J2922D01*
G02X2268250I870J-501D01*
G03X2268690Y2270860I2529J1461D01*
G02X2268980Y2270160I-710J-704D01*
G01Y2265100D01*
G02X2268670Y2264380I-1000J4D01*
G03X2267980Y2262750I1580J-1630D01*
G01Y2261250D01*
G03X2268220Y2260230I2271J-4D01*
G02X2268330Y2259780I-889J-456D01*
G01Y2259220D01*
G02X2268220Y2258770I-999J6D01*
G03X2267980Y2257750I2031J-1016D01*
G01Y2256250D01*
G03X2268220Y2255230I2271J-4D01*
G02X2268330Y2254780I-889J-456D01*
G01Y2254220D01*
G02X2268220Y2253770I-999J6D01*
G03X2267980Y2252750I2031J-1016D01*
G01Y2251250D01*
G03X2268220Y2250230I2271J-4D01*
G02X2268330Y2249780I-889J-456D01*
G01Y2249220D01*
G02X2268220Y2248770I-999J6D01*
G03X2267980Y2247750I2031J-1016D01*
G01Y2246250D01*
G03X2270250Y2243980I2270J0D01*
G01X2273750D01*
G03X2275200Y2244500I0J2282D01*
G02X2275830Y2244730I638J-769D01*
G01X2276320D01*
G02X2277320Y2243730I0J-1000D01*
G01Y2243530D01*
X2277250Y2243340D01*
G03X2278310Y2239240I3252J-1346D01*
G02X2278690Y2238520I-618J-786D01*
G01X2278770Y2237020D01*
G02X2278480Y2236250I-997J-64D01*
G01X2277540Y2235310D01*
G02X2276830Y2235020I-704J710D01*
G01X2247170D01*
G02X2246460Y2235310I-6J1000D01*
G37*
G36*
G01X2186620Y2195500D02*
G02X2185700Y2196120I6J1001D01*
G02X2185920Y2197210I926J380D01*
G01X2191980Y2203270D01*
G03X2192270Y2203970I-710J704D01*
G01Y2209910D01*
G02X2192590Y2210640I1000J-3D01*
G01X2193670Y2211650D01*
G02X2194430Y2211910I677J-738D01*
G03X2194720Y2211930I77J996D01*
G02X2197110Y2211630I783J-3431D01*
G03X2197560Y2211520I456J890D01*
G01X2208480D01*
G03X2209110Y2211750I-8J1000D01*
G02X2209750Y2211980I638J-771D01*
G01X2218860D01*
G02X2219780Y2211360I-6J-1001D01*
G02X2219560Y2210270I-926J-380D01*
G01X2213850Y2204560D01*
G02X2213150Y2204270I-704J710D01*
G01X2207120D01*
G02X2206430Y2204550I4J999D01*
G03Y2199450I-2430J-2550D01*
G02X2207120Y2199730I694J-719D01*
G01X2215030D01*
G03X2215730Y2200020I-4J1000D01*
G01X2229150Y2213440D01*
G02X2229850Y2213730I704J-710D01*
G01X2238030D01*
G03X2238730Y2214020I-4J1000D01*
G01X2240980Y2216270D01*
G03X2241270Y2216970I-710J704D01*
G01Y2225350D01*
X2241420Y2225710D01*
X2241440Y2225730D01*
X2280530D01*
G03X2281230Y2226020I-4J1000D01*
G01X2295480Y2240270D01*
G03X2295770Y2240970I-710J704D01*
G01Y2252650D01*
G02X2296060Y2253350I1000J-4D01*
G01X2299150Y2256440D01*
G02X2299850Y2256730I704J-710D01*
G01X2327480D01*
G02X2328200Y2256420I-4J-1000D01*
G01X2329200Y2255380D01*
G02X2329480Y2254640I-718J-695D01*
G03X2335430Y2251950I3519J-142D01*
G02X2336120Y2252230I694J-719D01*
G01X2338150D01*
G02X2338850Y2251940I-4J-1000D01*
G01X2344940Y2245850D01*
G02X2345230Y2245150I-710J-704D01*
G01Y2207030D01*
G03X2345520Y2206330I1000J4D01*
G01X2353830Y2198020D01*
G03X2354530Y2197730I704J710D01*
G01X2520610D01*
G03X2521310Y2198020I-4J1000D01*
G01X2534480Y2211190D01*
G03X2534770Y2211890I-710J704D01*
G01Y2230660D01*
G03X2534480Y2231360I-1000J-4D01*
G01X2530090Y2235750D01*
G02X2529910Y2236920I708J708D01*
G03X2527980Y2248460I-8681J4480D01*
G02X2527670Y2249170I692J725D01*
G01X2527660Y2250610D01*
G02X2527950Y2251330I999J16D01*
G01X2535440Y2258820D01*
G03X2535730Y2259520I-710J704D01*
G01Y2275680D01*
G03X2535440Y2276380I-1001J-5D01*
G02Y2277800I704J710D01*
G01X2540980Y2283340D01*
G03X2541270Y2284040I-710J704D01*
G01Y2450530D01*
G03X2540980Y2451230I-1000J-4D01*
G01X2530230Y2461980D01*
G03X2529530Y2462270I-704J-710D01*
G01X2301970D01*
G03X2301270Y2461980I4J-1000D01*
G01X2209670Y2370380D01*
G02X2208630Y2370150I-702J710D01*
G01X2206910Y2370760D01*
G02X2206250Y2371600I335J943D01*
G03X2202830Y2374770I-3502J-348D01*
G02X2202150Y2375060I24J999D01*
G01X2200730Y2376480D01*
G03X2200030Y2376770I-704J-710D01*
G01X2198740D01*
G02X2197750Y2377670I6J1001D01*
G01Y2377680D01*
G03X2194070Y2381020I-3689J-367D01*
G01X2188930D01*
G03X2185230Y2377320I7J-3707D01*
G01Y2371680D01*
G03X2188930Y2367980I3707J7D01*
G01X2194070D01*
G03X2196840Y2369230I-6J3708D01*
G01Y2369240D01*
G02X2197630Y2369570I744J-670D01*
G01X2199190Y2369520D01*
G02X2199950Y2369120I-42J-1001D01*
G03X2204360Y2368120I2801J2130D01*
G02X2205560Y2367900I457J-891D01*
G01X2205690Y2367750D01*
G02X2205660Y2366370I-738J-674D01*
G01X2203850Y2364560D01*
G02X2203150Y2364270I-704J710D01*
G01X2173020D01*
G02X2172300Y2364580I4J1000D01*
G01X2171300Y2365620D01*
G02X2171020Y2366360I718J695D01*
G03X2170990Y2366940I-3518J109D01*
G02X2172190Y2368060I998J134D01*
G03X2172930Y2367980I766J3625D01*
G01X2178070D01*
G03X2181770Y2371680I-7J3707D01*
G01Y2377320D01*
G03X2178070Y2381020I-3707J-7D01*
G01X2172930D01*
G03X2169250Y2377680I9J-3707D01*
G01Y2377670D01*
G02X2168260Y2376770I-996J101D01*
G01X2155350D01*
G02X2154650Y2377060I4J1000D01*
G01X2145600Y2386110D01*
G02Y2387530I704J710D01*
G01X2146900Y2388830D01*
G02X2147600Y2389120I704J-710D01*
G01X2149100D01*
G03X2152020Y2392040I0J2920D01*
G01Y2394480D01*
G03X2150560Y2397010I-2922J0D01*
G02Y2398750I501J870D01*
G03X2151140Y2399190I-1461J2529D01*
G02X2151840Y2399480I704J-710D01*
G01X2152060D01*
G02X2152810Y2399140I-1J-999D01*
G01X2153810Y2398010D01*
G02X2154060Y2397230I-744J-669D01*
G01Y2397220D01*
G03X2168010Y2386820I9943J-1219D01*
G02X2168800I395J-920D01*
G01X2170150Y2386240D01*
G02X2170700Y2385660I-392J-922D01*
G01X2170780Y2385430D01*
G03X2171720Y2384770I941J341D01*
G01X2184280D01*
G03X2185220Y2385430I-1J1001D01*
G01X2185300Y2385660D01*
G02X2185850Y2386240I942J-342D01*
G01X2187200Y2386820D01*
G02X2187990I395J-920D01*
G03X2195660Y2405330I4012J9181D01*
G01X2195650D01*
G02X2195020Y2406260I370J929D01*
G01Y2411840D01*
G03X2194730Y2412540I-1000J-4D01*
G01X2193560Y2413710D01*
G02X2193270Y2414420I710J704D01*
G01Y2418820D01*
G03X2191730Y2421820I-3707J-8D01*
G01X2191660Y2421870D01*
X2191600Y2421930D01*
G02Y2423350I705J710D01*
G01X2191730Y2423480D01*
G03X2192020Y2424180I-710J704D01*
G01Y2434010D01*
G02X2192650Y2434940I1001J0D01*
G03X2185170Y2452990I-3643J9065D01*
G02X2184070Y2453200I-395J918D01*
G01X2174480Y2462790D01*
G02X2174260Y2463880I707J710D01*
G01X2174270D01*
G02X2175190Y2464500I924J-378D01*
G01X2573000D01*
G02X2574000Y2463500I0J-1000D01*
G01Y2218230D01*
G02X2573630Y2217460I-1000J7D01*
G01X2572420Y2216470D01*
G02X2571590Y2216270I-627J780D01*
G01X2571580D01*
G03X2569500Y2216520I-2521J-12197D01*
G01X2568500D01*
G03X2557740Y2198400I474J-12536D01*
G02X2557700Y2197430I-893J-449D01*
G01X2556800Y2195970D01*
G02X2555950Y2195500I-849J532D01*
G01X2186620D01*
G37*
G36*
G01X2259190Y2408980D02*
X2301000Y2450790D01*
G02X2302090Y2451010I710J-706D01*
G02X2302710Y2450080I-381J-926D01*
G01Y2447930D01*
G03X2305920Y2444720I3214J4D01*
G01X2306360D01*
G02X2307240Y2444210I7J-1002D01*
G01X2308090Y2442660D01*
G02X2308060Y2441650I-875J-479D01*
G03X2307620Y2440100I2482J-1542D01*
G01Y2437900D01*
G03X2309010Y2435410I2925J0D01*
G02X2309490Y2434560I-519J-854D01*
G01Y2429110D01*
G02X2309200Y2428410I-1000J4D01*
G01X2299090Y2418300D01*
G02X2298390Y2418010I-704J710D01*
G01X2288880D01*
G02X2288190Y2418290I4J999D01*
G03X2282290Y2415130I-2432J-2548D01*
G02X2282080Y2414310I-983J-185D01*
G01X2281080Y2413130D01*
G02X2280320Y2412770I-768J639D01*
G01X2277620D01*
G02X2276930Y2413050I4J999D01*
G03X2271070Y2409720I-2428J-2549D01*
G02X2270870Y2408880I-977J-211D01*
G01X2269890Y2407650D01*
G02X2269110Y2407270I-784J619D01*
G01X2259900D01*
G02X2258970Y2407890I-4J1001D01*
G02X2259190Y2408980I926J380D01*
G37*
G36*
G01X2329450D02*
X2355160Y2434690D01*
G02X2355860Y2434980I704J-710D01*
G01X2357480D01*
G03X2359490Y2435790I-7J2917D01*
G02X2360190Y2436060I684J-731D01*
G01X2361570D01*
G02X2362270Y2435790I16J-1001D01*
G03X2364280Y2434980I2017J2107D01*
G01X2366720D01*
G03X2369640Y2437900I0J2920D01*
G01Y2440100D01*
G03X2369200Y2441650I-2922J8D01*
G02X2369170Y2442660I845J531D01*
G01X2370020Y2444210D01*
G02X2370900Y2444720I873J-492D01*
G01X2371070D01*
G03X2374280Y2447930I-4J3214D01*
G01Y2452070D01*
G03X2374250Y2452470I-3212J-40D01*
G02X2374500Y2453260I994J120D01*
G01X2375500Y2454390D01*
G02X2376250Y2454730I751J-659D01*
G01X2487300D01*
G02X2488220Y2454120I-1J-1000D01*
G01X2488950Y2452420D01*
G02X2488750Y2451340I-920J-388D01*
G01Y2451330D01*
G03X2489860Y2436870I7081J-6729D01*
G02X2490190Y2435750I-614J-790D01*
G01X2489580Y2433950D01*
G02X2488630Y2433270I-948J321D01*
G01X2458470D01*
G03X2457770Y2432980I4J-1000D01*
G01X2432350Y2407560D01*
G02X2431650Y2407270I-704J710D01*
G01X2330160D01*
G02X2329230Y2407890I-4J1001D01*
G02X2329450Y2408980I926J380D01*
G37*
G36*
G01X2301690Y2414480D02*
X2313740Y2426530D01*
G03X2314030Y2427230I-710J704D01*
G01Y2434560D01*
G02X2314510Y2435410I999J-4D01*
G03X2314990Y2435790I-1561J2465D01*
G02X2315690Y2436060I684J-731D01*
G01X2317070D01*
G02X2317770Y2435790I16J-1001D01*
G03X2319780Y2434980I2017J2107D01*
G01X2322220D01*
G03X2325140Y2437900I0J2920D01*
G01Y2440100D01*
G03X2323360Y2442790I-2923J0D01*
G01X2323350D01*
G02X2322740Y2443710I392J922D01*
G01Y2443720D01*
G02X2323740Y2444720I1000J0D01*
G01X2325070D01*
G03X2328280Y2447930I-4J3214D01*
G01Y2452070D01*
G03X2328250Y2452470I-3212J-40D01*
G02X2328500Y2453260I994J120D01*
G01X2329500Y2454390D01*
G02X2330250Y2454730I751J-659D01*
G01X2346740D01*
G02X2347490Y2454390I-1J-999D01*
G01X2348490Y2453260D01*
G02X2348740Y2452470I-744J-670D01*
G03X2348710Y2452070I3182J-440D01*
G01Y2447930D01*
G03X2351920Y2444720I3214J4D01*
G01X2353520D01*
G02X2354520Y2443720I0J-1000D01*
G01Y2443710D01*
G02X2353910Y2442790I-1002J2D01*
G01X2353900D01*
G03X2352120Y2440100I1143J-2690D01*
G01Y2438480D01*
G02X2351830Y2437780I-1000J4D01*
G01X2327110Y2413060D01*
G02X2326410Y2412770I-704J710D01*
G01X2302400D01*
G02X2301470Y2413390I-4J1001D01*
G02X2301690Y2414480I926J380D01*
G37*
G36*
G01X2388430Y2205560D02*
X2384000Y2209990D01*
G03X2383300Y2210280I-704J-710D01*
G01X2383250D01*
G02X2382250Y2211180I-4J1001D01*
G01Y2211190D01*
G03X2380970Y2213650I-3692J-358D01*
G02X2380610Y2214410I639J768D01*
G01Y2215940D01*
G02X2380970Y2216700I999J-8D01*
G03X2382270Y2219520I-2410J2820D01*
G01Y2225160D01*
Y2225240D01*
G02X2382550Y2225970I1001J35D01*
G01X2383560Y2227000D01*
G02X2384280Y2227300I714J-700D01*
G01X2488590D01*
G02X2489540Y2226630I5J-1002D01*
G01X2490160Y2224820D01*
G02X2489830Y2223710I-948J-322D01*
G01X2489820D01*
G03X2489260Y2208770I6009J-7706D01*
G02X2489520Y2207660I-669J-742D01*
G01X2488850Y2205910D01*
G02X2487910Y2205270I-934J361D01*
G01X2389130D01*
G02X2388430Y2205560I4J1000D01*
G37*
G36*
G01X2382830Y2232130D02*
X2382510Y2232450D01*
G02X2382230Y2233310I708J706D01*
G03X2382270Y2233850I-3668J543D01*
G01Y2239490D01*
G03X2380970Y2242310I-3710J0D01*
G02X2380610Y2243070I639J768D01*
G01Y2244600D01*
G02X2380970Y2245360I999J-8D01*
G03X2382250Y2247820I-2412J2818D01*
G01Y2247830D01*
G02X2383250Y2248730I996J-101D01*
G01X2455030D01*
G03X2455730Y2249020I-4J1000D01*
G01X2470480Y2263770D01*
G03X2470770Y2264470I-710J704D01*
G01Y2288920D01*
G02X2471060Y2289620I1000J-4D01*
G01X2490180Y2308740D01*
G02X2491350Y2308920I708J-708D01*
G03X2501960Y2309990I4484J8680D01*
G02X2503020Y2310120I633J-774D01*
G01X2504660Y2309330D01*
G02X2505230Y2308430I-429J-902D01*
G01Y2305400D01*
G03X2505520Y2304700I1000J4D01*
G01X2512370Y2297850D01*
G02X2512550Y2296690I-709J-704D01*
G01Y2296680D01*
G03X2516440Y2283680I8681J-4484D01*
G01X2516450D01*
G02X2516950Y2282950I-491J-873D01*
G01X2517160Y2281360D01*
G02X2516880Y2280510I-988J-146D01*
G01X2507520Y2271150D01*
G02X2506670Y2270870I-704J708D01*
G01X2505080Y2271080D01*
G02X2504350Y2271580I143J991D01*
G01Y2271590D01*
G03X2503200Y2260390I-8519J-4784D01*
G01X2503210D01*
G02X2504310Y2260670I752J-655D01*
G01X2506080Y2260010D01*
G02X2506730Y2259080I-349J-936D01*
G01Y2249120D01*
G02X2506080Y2248190I-999J6D01*
G01X2504310Y2247530D01*
G02X2503210Y2247810I-348J935D01*
G01X2503200D01*
G03X2488330Y2235140I-7371J-6411D01*
G02X2488470Y2234070I-765J-644D01*
G01X2487700Y2232420D01*
G02X2486790Y2231840I-908J420D01*
G01X2383530D01*
G02X2382830Y2232130I4J1000D01*
G37*
G36*
G01X2504620Y2334810D02*
X2503790Y2336390D01*
G02X2503850Y2337420I884J465D01*
G01Y2337430D01*
G03X2486070Y2343410I-8021J5575D01*
G01Y2343400D01*
G02X2485430Y2342510I-1001J45D01*
G01X2483710Y2341840D01*
G02X2482640Y2342070I-359J934D01*
G01X2478560Y2346150D01*
G02X2478270Y2346850I710J704D01*
G01Y2390180D01*
Y2390190D01*
X2478250Y2395040D01*
G03X2477950Y2395750I-1001J-4D01*
G01X2475680Y2398020D01*
G02X2475460Y2399110I706J710D01*
G02X2476390Y2399730I926J-381D01*
G01X2484720D01*
G02X2485540Y2399310I5J-1000D01*
G01X2486490Y2397960D01*
G02X2486620Y2397050I-814J-581D01*
G03X2503060Y2400370I9212J-3251D01*
G02X2502890Y2401450I741J670D01*
G01X2503630Y2403130D01*
G02X2504550Y2403730I916J-400D01*
G01X2508560D01*
G03X2509260Y2404020I-4J1000D01*
G01X2515580Y2410340D01*
G02X2516750Y2410520I708J-708D01*
G03X2526390Y2410900I4485J8680D01*
G02X2527410Y2410930I535J-844D01*
G01X2528950Y2410070D01*
G02X2529460Y2409200I-490J-872D01*
G01Y2405650D01*
G02X2529170Y2404950I-1000J4D01*
G01X2526880Y2402660D01*
G02X2525710Y2402480I-708J708D01*
G03X2529100Y2388010I-4480J-8682D01*
G01Y2388020D01*
G02X2530220Y2388370I802J-599D01*
G01X2532040Y2387780D01*
G02X2532730Y2386830I-311J-952D01*
G01Y2375370D01*
G02X2532040Y2374420I-1001J2D01*
G01X2530220Y2373830D01*
G02X2529100Y2374180I-318J949D01*
G01Y2374190D01*
G03X2514370Y2361440I-7867J-5795D01*
G02X2514670Y2360730I-699J-714D01*
G01Y2359300D01*
G02X2514380Y2358590I-998J-6D01*
G01X2508750Y2352960D01*
G03X2508460Y2352260I710J-704D01*
G01Y2336240D01*
G03X2508750Y2335540I1000J4D01*
G01X2508780Y2335510D01*
X2508530Y2334890D01*
G02X2507600Y2334270I-926J381D01*
G01X2505500D01*
G02X2504620Y2334810I7J998D01*
G37*
G36*
G01X2437190Y2405980D02*
X2459650Y2428440D01*
G02X2460350Y2428730I704J-710D01*
G01X2486770D01*
G02X2487670Y2428160I-3J-1000D01*
G01X2488450Y2426500D01*
G02X2488310Y2425440I-907J-419D01*
G03X2492030Y2410200I7519J-6239D01*
G02X2492640Y2409280I-390J-921D01*
G01Y2409270D01*
G02X2491640Y2408270I-1000J0D01*
G01X2490470D01*
G03X2489770Y2407980I4J-1000D01*
G01X2486350Y2404560D01*
G02X2485650Y2404270I-704J710D01*
G01X2437900D01*
G02X2436970Y2404890I-4J1001D01*
G02X2437190Y2405980I926J380D01*
G37*
G36*
G01X2501800Y2436870D02*
G03X2502910Y2451330I-5971J7731D01*
G01Y2451340D01*
G02X2502710Y2452420I720J692D01*
G01X2503440Y2454120D01*
G02X2504360Y2454730I921J-390D01*
G01X2512700D01*
G02X2513620Y2454120I-1J-1000D01*
G01X2514350Y2452420D01*
G02X2514150Y2451340I-920J-388D01*
G01Y2451330D01*
G03X2515260Y2436870I7081J-6729D01*
G02X2515590Y2435750I-614J-790D01*
G01X2514980Y2433950D01*
G02X2514030Y2433270I-948J321D01*
G01X2503030D01*
G02X2502080Y2433950I-2J1001D01*
G01X2501470Y2435750D01*
G02X2501800Y2436870I944J330D01*
G37*
%LPC*%
G75*
G36*
G01X1989820Y2226500D02*
Y2211500D01*
G02X1980780I-4520J0D01*
G01Y2226500D01*
G02X1982620Y2230140I4520J0D01*
G03X1983030Y2230950I-590J808D01*
G01Y2243180D01*
G03X1982750Y2243870I-999J-4D01*
G02X1987850I2550J2430D01*
G03X1987570Y2243180I719J-694D01*
G01Y2230950D01*
G03X1987980Y2230140I1000J-2D01*
G02X1989820Y2226500I-2680J-3640D01*
G37*
G36*
G01X1977120D02*
Y2211500D01*
G02X1968080I-4520J0D01*
G01Y2226500D01*
G02X1969920Y2230140I4520J0D01*
G03X1970330Y2230950I-590J808D01*
G01Y2243780D01*
G03X1970050Y2244470I-999J-4D01*
G02X1975150I2550J2430D01*
G03X1974870Y2243780I719J-694D01*
G01Y2230950D01*
G03X1975280Y2230140I1000J-2D01*
G02X1977120Y2226500I-2680J-3640D01*
G37*
G36*
G01X1939230Y2316130D02*
Y2349170D01*
G02X1940230Y2350170I1000J0D01*
G01X1973270D01*
G02X1974270Y2349170I0J-1000D01*
G01Y2316130D01*
G02X1973270Y2315130I-1000J0D01*
G01X1940230D01*
G02X1939230Y2316130I0J1000D01*
G37*
G36*
G01X2257980Y2264520D02*
X2262020D01*
G02X2263020Y2263520I0J-1000D01*
G01Y2245480D01*
G02X2262020Y2244480I-1000J0D01*
G01X2257980D01*
G02X2256980Y2245480I0J1000D01*
G01Y2263520D01*
G02X2257980Y2264520I1000J0D01*
G37*
G54D31*
X2312000Y2211000D03*
G54D30*
X1985300Y2265000D03*
X1972600D03*
G54D32*
X2495830Y2292200D03*
Y2368400D03*
%LPD*%
G75*
G54D10*
X1947200Y2219000D03*
X1959900D03*
X1972600D03*
X1985300D03*
X1998000D03*
X1947200Y2265000D03*
X1959900D03*
X1972600D03*
X1985300D03*
X1998000D03*
G54D20*
X2148000Y2402500D03*
X2284000Y2266000D03*
G54D11*
X1848000Y2207000D03*
X1852000Y2451000D03*
X2569000Y2204000D03*
G54D21*
X2148000Y2393260D03*
X2284000Y2256760D03*
G54D12*
X1965250Y2341150D03*
Y2324150D03*
X1948250Y2341150D03*
Y2324150D03*
G54D22*
X2230000Y2251500D03*
X2262760Y2274000D03*
X2311760Y2439000D03*
X2356260D03*
G54D13*
X2002000Y2361500D03*
Y2350000D03*
Y2338500D03*
Y2327000D03*
Y2315500D03*
Y2304000D03*
Y2373000D03*
G54D14*
X1991000Y2288000D03*
X1979500D03*
X1968000D03*
X1956500D03*
X1945000D03*
X1933500D03*
X1922000D03*
X1910500D03*
X1899000D03*
Y2389000D03*
X1910500D03*
X1922000D03*
X1933500D03*
X1945000D03*
X1956500D03*
X1968000D03*
X1979500D03*
X1991000D03*
G54D23*
X2239240Y2251500D03*
X2272000Y2274000D03*
X2321000Y2439000D03*
X2365500D03*
G54D15*
X1939000Y2278000D03*
X1998000Y2237000D03*
X1905000Y2203000D03*
X1934500Y2303000D03*
X1913500Y2217500D03*
X1903500Y2235000D03*
X1904500Y2259500D03*
X1904000Y2303000D03*
Y2325500D03*
X1905000Y2342000D03*
X1934000Y2217000D03*
X1912500Y2231000D03*
X1934500Y2249500D03*
X1911500Y2277000D03*
X1931000Y2230500D03*
X1933000Y2205500D03*
X2011500Y2245000D03*
X2007000Y2210500D03*
X1972000Y2353500D03*
X1976500Y2348000D03*
X1986500Y2364500D03*
X1993500Y2346000D03*
X2004500Y2283000D03*
X1921000Y2246000D03*
X1921500Y2254500D03*
X1965730Y2357910D03*
X1954000Y2352000D03*
X1924120Y2311250D03*
X1915140Y2302270D03*
X1904950Y2359330D03*
X1917650D03*
X1930350D03*
X1942300Y2355040D03*
X1926770Y2335580D03*
X1917740Y2326650D03*
X1908760Y2317670D03*
X1926250Y2341150D03*
X1926650Y2324150D03*
X1933500Y2269500D03*
X1994500Y2304000D03*
X1985300Y2246300D03*
X2011000Y2315500D03*
X1972600Y2246900D03*
X1995000Y2327000D03*
X1959900Y2249100D03*
X1947500Y2239000D03*
X1982000Y2327500D03*
X1956500Y2294500D03*
X1953000Y2245500D03*
X1991000Y2381500D03*
X1933500Y2425500D03*
X1977000Y2423000D03*
X1995500Y2414500D03*
X1962000Y2381000D03*
X1979000Y2380500D03*
X1929500Y2405500D03*
X1913000Y2444500D03*
X1910000Y2400000D03*
X1906500Y2422000D03*
X1954000Y2425000D03*
X1962500Y2397500D03*
X1945000Y2451500D03*
X1987500Y2452500D03*
X2001500Y2445500D03*
X1970500Y2442500D03*
X1927500Y2445000D03*
X1939000Y2397500D03*
X1902920Y2374730D03*
X1915620D03*
X1928320D03*
X1941020D03*
X1953720D03*
X1965730Y2370610D03*
X2152000Y2241500D03*
X2151000Y2296500D03*
X2027000Y2345500D03*
X2029000Y2356000D03*
X2167500Y2366500D03*
X2131000Y2244500D03*
X2147500Y2271500D03*
X2127000Y2287000D03*
X2126500Y2210500D03*
X2046000Y2209500D03*
X2036500Y2255500D03*
X2039000Y2301500D03*
X2043500Y2316000D03*
X2044500Y2367500D03*
X2130500Y2363000D03*
X2164000Y2338500D03*
X2118000Y2337500D03*
X2102000Y2348500D03*
X2107000Y2325500D03*
X2112500Y2263500D03*
X2108500Y2241000D03*
X2163500Y2224500D03*
X2113500Y2219500D03*
X2026000Y2241500D03*
Y2208000D03*
X2018000Y2366500D03*
X2022500Y2275000D03*
X2020000Y2328500D03*
X2021500Y2313500D03*
X2018500Y2255000D03*
X2016000Y2223500D03*
X2130500Y2321500D03*
X2116000Y2327000D03*
X2017000Y2288500D03*
X2181000Y2202000D03*
X2029000Y2416500D03*
X2108500Y2402000D03*
X2114500Y2391000D03*
X2107000Y2442500D03*
X2136000Y2447000D03*
X2153500Y2422000D03*
X2101500Y2374000D03*
X2022000Y2381500D03*
X2023500Y2413500D03*
X2022000Y2441500D03*
X2020500Y2453500D03*
X2279000Y2252000D03*
X2280500Y2242000D03*
X2248000Y2269500D03*
X2197750Y2230750D03*
X2201000Y2282770D03*
X2318500Y2266500D03*
X2300500Y2284000D03*
X2295000Y2268000D03*
X2264500Y2213000D03*
X2261000Y2199500D03*
X2219000Y2198500D03*
X2232500Y2210000D03*
X2246000Y2222500D03*
X2289000Y2224000D03*
X2200500Y2306500D03*
X2205000Y2321500D03*
X2215500Y2334000D03*
X2317500Y2297500D03*
X2267000Y2354500D03*
X2259000Y2326500D03*
X2306000Y2315500D03*
X2293000Y2200000D03*
X2202500Y2275500D03*
X2221500Y2246500D03*
X2217500Y2263500D03*
X2270500Y2283500D03*
X2267500Y2239500D03*
X2253500Y2277000D03*
X2260000Y2291500D03*
X2241500Y2301500D03*
X2224500Y2305500D03*
X2255000Y2238000D03*
X2336000Y2359000D03*
X2307500Y2354500D03*
X2254000Y2367500D03*
X2357500Y2272000D03*
X2366000Y2296500D03*
X2339000Y2204000D03*
X2204000Y2202000D03*
X2200000Y2238000D03*
X2229000Y2366500D03*
X2350850Y2249500D03*
X2333000Y2254500D03*
X2285760Y2415740D03*
X2213500Y2391000D03*
X2200500Y2424500D03*
X2201000Y2457000D03*
X2285500Y2452000D03*
X2238000Y2405000D03*
X2336000Y2412000D03*
X2359500Y2413500D03*
X2313500Y2417500D03*
X2299000Y2424500D03*
Y2442000D03*
X2359500Y2431500D03*
X2336000Y2448000D03*
X2339000Y2437500D03*
X2324500Y2385500D03*
X2255000Y2452000D03*
X2213000Y2411000D03*
X2275500Y2392500D03*
X2365500Y2380000D03*
X2280500Y2421000D03*
X2274500Y2410500D03*
X2202750Y2371250D03*
X2484500Y2354500D03*
X2480500Y2330000D03*
X2467500Y2347500D03*
X2372000Y2315500D03*
X2433500Y2316000D03*
X2405500Y2280500D03*
X2370000Y2354500D03*
X2459000Y2330500D03*
X2476000Y2308000D03*
X2450500Y2264000D03*
X2477500Y2280500D03*
X2476000Y2244000D03*
X2388500Y2217500D03*
X2478500D03*
X2540000Y2207000D03*
X2536000Y2242500D03*
X2430000Y2412000D03*
X2509500Y2381500D03*
X2482000Y2388000D03*
X2460500Y2378000D03*
X2392000Y2391000D03*
X2438000Y2391500D03*
X2412500Y2431500D03*
X2479500Y2446000D03*
X2374500Y2440500D03*
X2470000Y2422500D03*
X2380500Y2450000D03*
X2568000Y2226000D03*
X2568500Y2295000D03*
X2546500Y2276500D03*
X2547000Y2352000D03*
X2567000Y2340500D03*
Y2445000D03*
X2549500Y2391000D03*
X2552500Y2457500D03*
G54D24*
X2260000Y2254500D03*
G54D16*
X2003000Y2404000D03*
X1987000D03*
X2190000Y2238000D03*
X2174000D03*
X2191000Y2344000D03*
X2175000D03*
X2191000Y2286000D03*
X2175000D03*
X2190000Y2269000D03*
X2174000D03*
X2190000Y2253000D03*
X2174000D03*
X2187000Y2416000D03*
X2171000D03*
X2360000Y2251000D03*
X2376000D03*
G54D25*
X2272000Y2247000D03*
Y2252000D03*
Y2257000D03*
Y2262000D03*
X2248000Y2247000D03*
Y2252000D03*
Y2257000D03*
Y2262000D03*
G54D26*
X2307990Y2450000D03*
X2323000D03*
X2353990D03*
X2369000D03*
G54D17*
X2089230Y2216000D03*
Y2241400D03*
Y2266800D03*
Y2292200D03*
Y2317600D03*
Y2343000D03*
Y2368400D03*
X2063830Y2216000D03*
Y2241400D03*
Y2266800D03*
Y2292200D03*
Y2317600D03*
Y2343000D03*
Y2368400D03*
X2089230Y2393800D03*
Y2419200D03*
Y2444600D03*
X2063830Y2393800D03*
Y2419200D03*
Y2444600D03*
X2163600Y2444000D03*
X2189000D03*
X2521230Y2216000D03*
Y2241400D03*
Y2266800D03*
Y2292200D03*
Y2317600D03*
Y2343000D03*
Y2368400D03*
X2495830Y2216000D03*
Y2241400D03*
Y2266800D03*
Y2292200D03*
Y2317600D03*
Y2343000D03*
Y2368400D03*
X2521230Y2393800D03*
Y2419200D03*
Y2444600D03*
X2495830Y2393800D03*
Y2419200D03*
Y2444600D03*
G54D27*
G01X1998000Y2237000D02*
Y2265000D01*
G01X1926250Y2324150D02*
X1926650D01*
G01X1985300Y2251980D02*
Y2265000D01*
G01D02*
Y2278020D01*
G01X1979780Y2265000D02*
X1985300D01*
G01D02*
X1990820D01*
G01X1972600Y2251980D02*
Y2265000D01*
G01D02*
Y2278020D01*
G01X1967080Y2265000D02*
X1972600D01*
G01D02*
X1978120D01*
G01X1947200Y2251980D02*
Y2265000D01*
G01D02*
Y2278020D01*
G01X1941680Y2265000D02*
X1947200D01*
G01D02*
X1952720D01*
G01X1922000Y2282730D02*
Y2288000D01*
G01D02*
Y2293270D01*
G01X1899000Y2282730D02*
Y2288000D01*
G01D02*
Y2293270D01*
G01X1965250Y2341150D02*
Y2351170D01*
G01Y2341150D02*
X1975270D01*
G01X1948250D02*
Y2351170D01*
G01X1938230Y2341150D02*
X1948250D01*
G01X1965250Y2314130D02*
Y2324150D01*
G01D02*
X1975270D01*
G01X1948250Y2314130D02*
Y2324150D01*
G01X1938230D02*
X1948250D01*
G01X1899000Y2383730D02*
Y2389000D01*
G01D02*
Y2394270D01*
G01X1922000Y2389000D02*
X1933500D01*
G01X2189000Y2444000D02*
X2172000Y2461000D01*
X1931000D01*
X1922000Y2452000D01*
Y2389000D01*
G01X2148000Y2402500D02*
X2157500D01*
X2164000Y2396000D01*
G01X2163600Y2444000D02*
X2151600Y2456000D01*
X2075230D01*
X2063830Y2444600D01*
G01X2171000Y2416000D02*
Y2416250D01*
X2163600Y2423650D01*
Y2444000D01*
G01X2164000Y2396000D02*
Y2408750D01*
X2171000Y2415750D01*
Y2416000D01*
G01X2192000Y2396000D02*
Y2411000D01*
X2187000Y2416000D01*
G01X2189000Y2444000D02*
Y2425020D01*
X2187000Y2423020D01*
Y2416000D01*
G01X2197750Y2230750D02*
Y2225250D01*
X2208000Y2215000D01*
X2221750D01*
X2230000Y2223250D01*
Y2223500D01*
G01X2272000Y2262000D02*
Y2274000D01*
G01X2230000Y2244000D02*
Y2236000D01*
G01Y2251500D02*
Y2244000D01*
G01X2284000Y2266000D02*
Y2265880D01*
X2289500Y2260380D01*
Y2243000D01*
X2278500Y2232000D01*
X2245500D01*
X2233500Y2244000D01*
X2230000D01*
G01X2272000Y2274000D02*
X2276120D01*
X2284000Y2266120D01*
Y2266000D01*
G01X2230000Y2223500D02*
Y2236000D01*
G01X2257620Y2274000D02*
X2262760D01*
G01Y2268980D02*
Y2274000D01*
G01D02*
Y2279020D01*
G01X2248000Y2247000D02*
X2253020D01*
G01X2248000Y2242980D02*
Y2247000D01*
G01X2260000Y2243480D02*
Y2254500D01*
G01D02*
Y2265520D01*
G01X2255980Y2254500D02*
X2260000D01*
G01D02*
X2264020D01*
G01X2323000Y2450000D02*
X2329280D01*
G01X2323000D02*
X2329280Y2443720D01*
G01X2510460Y2444600D02*
X2521230D01*
G01X2512610Y2435980D02*
X2521230Y2444600D01*
G01X2369000Y2450000D02*
X2375280D01*
G01X2369000D02*
X2375280Y2443720D01*
G54D18*
X2175000Y2317000D03*
X2191000D03*
X2175000Y2300000D03*
X2191000D03*
X2175500Y2374500D03*
X2191500D03*
X2360000Y2236670D03*
Y2222340D03*
Y2208010D03*
X2214000Y2236000D03*
X2230000D03*
X2214000Y2223500D03*
X2230000D03*
X2376000Y2236670D03*
Y2222340D03*
Y2208010D03*
G54D28*
G01X1830000Y2470000D02*
X1829980Y2190000D01*
X2583000D01*
Y2470000D01*
X1830000D01*
G54D19*
X2164000Y2396000D03*
X2192000D03*
X2312000Y2211000D03*
G54D29*
G01X1939000Y2278000D02*
Y2282000D01*
X1945000Y2288000D01*
G01X2191000Y2286000D02*
Y2285750D01*
X2183250Y2278000D01*
X2166000D01*
X2143000Y2255000D01*
X2057500D01*
X2018500Y2294000D01*
X1980730D01*
X1979500Y2292770D01*
Y2288000D01*
G01X1933500Y2269500D02*
Y2288000D01*
G01X1998000Y2219000D02*
Y2226500D01*
X2004000Y2232500D01*
Y2276750D01*
X1992750Y2288000D01*
X1991000D01*
G01X1994500Y2304000D02*
X2002000D01*
G01X1985300Y2219000D02*
Y2246300D01*
G01X2011000Y2315500D02*
X2002000D01*
G01X1972600Y2219000D02*
Y2246900D01*
G01X1995000Y2327000D02*
X2002000D01*
G01X1959900Y2219000D02*
Y2249100D01*
G01X2190000Y2252750D02*
X2183000Y2245750D01*
Y2210500D01*
X2174250Y2201750D01*
X1964630D01*
X1959900Y2206480D01*
Y2219000D01*
G01X2181000Y2202000D02*
X2177750Y2198750D01*
X1954930D01*
X1947200Y2206480D01*
Y2219000D01*
G01X1947500Y2239000D02*
Y2231820D01*
X1947200Y2231520D01*
Y2219000D01*
G01X1982000Y2327500D02*
Y2331520D01*
X1988980Y2338500D01*
X2002000D01*
G01X1968000Y2288000D02*
Y2292770D01*
X1972230Y2297000D01*
X2020500D01*
X2035800Y2281700D01*
X2156950D01*
X2175000Y2299750D01*
Y2300000D01*
G01X2190000Y2238000D02*
Y2204500D01*
X2181250Y2195750D01*
X1950250D01*
X1941950Y2204050D01*
Y2242950D01*
X1944500Y2245500D01*
X1953000D01*
G01X1956500Y2294500D02*
Y2288000D01*
G01X2175000Y2317000D02*
X2106000D01*
X2094900Y2328100D01*
X2050900D01*
X2029000Y2350000D01*
X2002000D01*
G01Y2361500D02*
X2031000D01*
X2038010Y2354490D01*
X2150000D01*
X2160490Y2344000D01*
X2175000D01*
G01X1991000Y2389000D02*
Y2381500D01*
G01X2029000Y2416500D02*
X2022500Y2423000D01*
X1993050D01*
X1979500Y2409450D01*
Y2389000D01*
G01X1968000D02*
Y2403000D01*
X1991000Y2426000D01*
X2042000D01*
X2060000Y2408000D01*
X2111000D01*
X2160000Y2359000D01*
X2206000D01*
X2304000Y2457000D01*
X2527000D01*
X2535000Y2449000D01*
Y2360500D01*
X2531500Y2357000D01*
X2516000D01*
X2510730Y2351730D01*
Y2336770D01*
X2516500Y2331000D01*
X2527000D01*
X2532000Y2326000D01*
Y2302970D01*
X2521230Y2292200D01*
G01Y2266800D02*
X2539000Y2284570D01*
Y2450000D01*
X2529000Y2460000D01*
X2302500D01*
X2204500Y2362000D01*
X2161500D01*
X2093500Y2430000D01*
X1975020D01*
X1956500Y2411480D01*
Y2389000D01*
G01X2140500Y2388000D02*
X2094500Y2434000D01*
X1952990D01*
X1945000Y2426010D01*
Y2389000D01*
G01X2229000Y2366500D02*
X2215500Y2353000D01*
X2157000D01*
X2130000Y2380000D01*
X2057000D01*
X2050000Y2373000D01*
X2002000D01*
G01X1987000Y2404000D02*
Y2403750D01*
X2002000Y2388750D01*
Y2373000D01*
G01X2003000Y2404000D02*
X2022990D01*
X2043990Y2383000D01*
X2131500D01*
X2158500Y2356000D01*
X2211000D01*
X2260000Y2405000D01*
X2433000D01*
X2459000Y2431000D01*
X2524280D01*
X2531730Y2423550D01*
Y2404300D01*
X2521230Y2393800D01*
G01X2175000Y2286000D02*
X2168230D01*
X2159530Y2277300D01*
X2074330D01*
X2063830Y2266800D01*
G01X2174000Y2269000D02*
X2161500D01*
X2144400Y2251900D01*
X2074330D01*
X2063830Y2241400D01*
G01X2174000Y2238000D02*
X2155500D01*
X2152000Y2241500D01*
G01X2063830Y2317600D02*
X2075430Y2306000D01*
X2168000D01*
X2170000Y2308000D01*
X2183250D01*
X2191000Y2300250D01*
Y2300000D01*
G01X2151000Y2296500D02*
X2144800Y2302700D01*
X2074330D01*
X2063830Y2292200D01*
G01X2027000Y2345500D02*
X2053000Y2319500D01*
Y2303030D01*
X2063830Y2292200D01*
G01X2174000Y2253000D02*
X2155250D01*
X2128750Y2226500D01*
X2074330D01*
X2063830Y2216000D01*
G01X2521230Y2317600D02*
X2506830Y2332000D01*
X2489500D01*
X2476000Y2345500D01*
Y2390180D01*
X2475980Y2394510D01*
X2471990Y2398500D01*
X2272000D01*
X2206000Y2332500D01*
X2052500D01*
X2029000Y2356000D01*
G01X2167500Y2366500D02*
Y2373270D01*
X2168730Y2374500D01*
G01X2116000Y2327000D02*
X2181250D01*
X2191000Y2317250D01*
Y2317000D01*
G01X2017000Y2288500D02*
X2053000Y2252500D01*
Y2236500D01*
X2059500Y2230000D01*
X2128000D01*
X2158260Y2260260D01*
X2181510D01*
X2190000Y2268750D01*
Y2269000D01*
G01X2168730Y2374500D02*
X2154000D01*
X2140500Y2388000D01*
G01X2175500Y2374500D02*
X2168730D01*
G01X2148000Y2393260D02*
Y2393140D01*
X2142860Y2388000D01*
X2140500D01*
G01X2272000Y2252000D02*
X2279000D01*
G01X2191000Y2344000D02*
X2213000D01*
X2270500Y2401500D01*
X2278000D01*
X2278500Y2402000D01*
X2487000D01*
X2491000Y2406000D01*
X2508030D01*
X2521230Y2419200D01*
G01X2280500Y2242000D02*
Y2245000D01*
X2278500Y2247000D01*
X2272000D01*
G01X2248000Y2257000D02*
X2243480D01*
X2242000Y2258480D01*
Y2290000D01*
X2259500Y2307500D01*
X2467500D01*
X2488100Y2328100D01*
X2502900D01*
X2507500Y2323500D01*
Y2305930D01*
X2521230Y2292200D01*
G01X2248000Y2269500D02*
Y2262000D01*
G01X2191000Y2286000D02*
X2197770D01*
X2201000Y2282770D01*
G01X2190000Y2269000D02*
X2194010D01*
X2214000Y2249010D01*
Y2236000D01*
G01Y2223500D02*
Y2223750D01*
X2207000Y2230750D01*
Y2249510D01*
X2203760Y2252750D01*
X2190000D01*
G01D02*
Y2253000D01*
G01X2204000Y2202000D02*
X2214500D01*
X2228500Y2216000D01*
X2237500D01*
X2239000Y2217500D01*
Y2226500D01*
X2240500Y2228000D01*
X2280000D01*
X2293500Y2241500D01*
Y2254000D01*
X2298500Y2259000D01*
X2368250D01*
X2376000Y2251250D01*
Y2251000D01*
G01X2360000Y2236670D02*
Y2222340D01*
G01X2376000Y2251000D02*
X2360000D01*
G01D02*
Y2236670D01*
G01X2190000Y2238000D02*
X2200000D01*
G01X2350850Y2249500D02*
Y2210390D01*
X2353230Y2208010D01*
X2360000D01*
G01X2333000Y2254500D02*
X2339500D01*
X2347500Y2246500D01*
Y2207560D01*
X2355060Y2200000D01*
X2520080D01*
X2532500Y2212420D01*
Y2230130D01*
X2521230Y2241400D01*
G01X2248000Y2252000D02*
X2239740D01*
X2239240Y2251500D01*
G01X2272000Y2257000D02*
X2279240D01*
X2279480Y2256760D01*
X2284000D01*
G01X2285760Y2415740D02*
X2299740D01*
X2311760Y2427760D01*
Y2439000D01*
G01X2321000D02*
X2320950D01*
X2316320Y2443630D01*
Y2443680D01*
X2310000Y2450000D01*
X2307990D01*
G01X2365500Y2439000D02*
X2365380D01*
X2361450Y2442930D01*
Y2448320D01*
X2359770Y2450000D01*
X2353990D01*
G01X2274500Y2410500D02*
X2327760D01*
X2356260Y2439000D01*
G01X2202750Y2371250D02*
X2199500Y2374500D01*
X2191500D01*
G01X2521230Y2343000D02*
X2531510D01*
X2535000Y2339510D01*
Y2291120D01*
X2525580Y2281700D01*
X2521280D01*
X2509000Y2269420D01*
Y2237500D01*
X2501070Y2229570D01*
X2382180D01*
X2376000Y2235750D01*
Y2236670D01*
G01Y2208010D02*
Y2222340D01*
G01Y2208010D02*
X2382770D01*
X2387780Y2203000D01*
X2508230D01*
X2521230Y2216000D01*
G01X2376000Y2251000D02*
X2454500D01*
X2468500Y2265000D01*
Y2290270D01*
X2495830Y2317600D01*
M02*
