G04 ================== begin FILE IDENTIFICATION RECORD ==================*
G04 Layout Name:  C:/kht/work/BOOSTXL-CC2650MA/Cadence/Allegro/BOOSTXL-CC2650MA.brd*
G04 Film Name:    BOOSTXL-CC2650MA_assembly_bottom*
G04 File Format:  Gerber RS274X*
G04 File Origin:  Cadence Allegro 16.6-S019*
G04 Origin Date:  Mon Apr 25 16:09:05 2016*
G04 *
G04 Layer:  REF DES/ASSEMBLY_BOTTOM*
G04 Layer:  PACKAGE GEOMETRY/ASSEMBLY_BOTTOM*
G04 Layer:  BOARD GEOMETRY/OUTLINE*
G04 *
G04 Offset:    (0.000 0.000)*
G04 Mirror:    No*
G04 Mode:      Positive*
G04 Rotation:  0*
G04 FullContactRelief:  No*
G04 UndefLineWidth:     0.099*
G04 ================== end FILE IDENTIFICATION RECORD ====================*
%FSLAX44Y44*MOMM*%
%IR0*IPPOS*OFA0.00000B0.00000*MIA0B0*SFA1.00000B1.00000*%
%ADD10C,.05*%
%ADD11C,.1*%
%ADD12C,.099*%
G75*
%LPD*%
G75*
G54D10*
G01X1973610Y2271910D02*
Y2266310D01*
X1971210D01*
G01X1967830Y2269300D02*
X1967590Y2269580D01*
X1967410Y2270040D01*
X1967290Y2270700D01*
X1967410Y2271260D01*
X1967650Y2271630D01*
X1968070Y2271910D01*
X1969690D01*
Y2266310D01*
X1967710D01*
X1967290Y2266680D01*
X1967050Y2267240D01*
X1966930Y2267900D01*
X1967050Y2268550D01*
X1967410Y2269110D01*
X1967830Y2269300D01*
X1969690D01*
G01X1965410Y2271910D02*
Y2266310D01*
X1963010D01*
G01X1960110D02*
Y2271910D01*
X1960830Y2270790D01*
G01Y2266310D02*
X1959390D01*
G54D11*
G01X2116030Y2451780D02*
X2115550Y2450890D01*
X2114970Y2450300D01*
X2114290Y2450000D01*
X2113520Y2450300D01*
X2112940Y2450890D01*
X2112360Y2451780D01*
X2112170Y2452970D01*
Y2458900D01*
G01X2107500Y2450000D02*
Y2458900D01*
X2108660Y2457120D01*
G01Y2450000D02*
X2106340D01*
G01X2551030Y2449780D02*
X2550550Y2448890D01*
X2549970Y2448300D01*
X2549290Y2448000D01*
X2548520Y2448300D01*
X2547940Y2448890D01*
X2547360Y2449780D01*
X2547170Y2450970D01*
Y2456900D01*
G01X2544340Y2455420D02*
X2543760Y2456310D01*
X2543080Y2456750D01*
X2542310Y2456900D01*
X2541340Y2456600D01*
X2540660Y2455860D01*
X2540470Y2454970D01*
X2540570Y2454080D01*
X2540950Y2453340D01*
X2542890Y2451860D01*
X2543760Y2450820D01*
X2544340Y2449330D01*
X2544530Y2448000D01*
X2540470D01*
G54D12*
G01X1830000Y2470000D02*
X1829980Y2190000D01*
X2583000D01*
Y2470000D01*
X1830000D01*
G01X1955890Y2305610D02*
G02X1961890Y2221610I3002J-42000D01*
G02X1955890Y2305610I-2998J42000D01*
G01X2101290Y2459840D02*
Y2200760D01*
G01D02*
X2051770D01*
G01D02*
Y2459840D01*
G01X2059890Y2237460D02*
Y2245340D01*
G01D02*
X2067770D01*
G01Y2237460D02*
X2059890D01*
G01X2067770Y2245340D02*
Y2237460D01*
G01X2085290D02*
Y2245340D01*
G01D02*
X2093170D01*
G01Y2237460D02*
X2085290D01*
G01X2093170Y2245340D02*
Y2237460D01*
G01X2059890Y2262860D02*
Y2270740D01*
G01D02*
X2067770D01*
G01Y2262860D02*
X2059890D01*
G01X2067770Y2270740D02*
Y2262860D01*
G01X2085290D02*
Y2270740D01*
G01D02*
X2093170D01*
G01Y2262860D02*
X2085290D01*
G01X2093170Y2270740D02*
Y2262860D01*
G01X2059890Y2288260D02*
Y2296140D01*
G01D02*
X2067770D01*
G01Y2288260D02*
X2059890D01*
G01X2067770Y2296140D02*
Y2288260D01*
G01X2085290D02*
Y2296140D01*
G01D02*
X2093170D01*
G01Y2288260D02*
X2085290D01*
G01X2093170Y2296140D02*
Y2288260D01*
G01X2059890Y2313660D02*
Y2321540D01*
G01D02*
X2067770D01*
G01Y2313660D02*
X2059890D01*
G01X2067770Y2321540D02*
Y2313660D01*
G01X2085290D02*
Y2321540D01*
G01D02*
X2093170D01*
G01Y2313660D02*
X2085290D01*
G01X2093170Y2321540D02*
Y2313660D01*
G01X2059890Y2339060D02*
Y2346940D01*
G01D02*
X2067770D01*
G01Y2339060D02*
X2059890D01*
G01X2067770Y2346940D02*
Y2339060D01*
G01X2085290D02*
Y2346940D01*
G01D02*
X2093170D01*
G01Y2339060D02*
X2085290D01*
G01X2093170Y2346940D02*
Y2339060D01*
G01X2059890Y2364460D02*
Y2372340D01*
G01X2067770Y2364460D02*
X2059890D01*
G01X2067770Y2372340D02*
Y2364460D01*
G01X2085290D02*
Y2372340D01*
G01X2093170Y2364460D02*
X2085290D01*
G01X2093170Y2372340D02*
Y2364460D01*
G01X2059890Y2212060D02*
Y2219940D01*
G01D02*
X2067770D01*
G01Y2212060D02*
X2059890D01*
G01X2067770Y2219940D02*
Y2212060D01*
G01X2093170Y2219940D02*
Y2212060D01*
G01D02*
X2085290D01*
G01Y2219940D02*
X2093170D01*
G01X2085290Y2212060D02*
Y2219940D01*
G01X2051770Y2459840D02*
X2101290D01*
G01X2059890Y2372340D02*
X2067770D01*
G01X2085290D02*
X2093170D01*
G01X2059890Y2389860D02*
Y2397740D01*
G01D02*
X2067770D01*
G01Y2389860D02*
X2059890D01*
G01X2067770Y2397740D02*
Y2389860D01*
G01X2085290D02*
Y2397740D01*
G01D02*
X2093170D01*
G01Y2389860D02*
X2085290D01*
G01X2093170Y2397740D02*
Y2389860D01*
G01X2059890Y2415260D02*
Y2423140D01*
G01D02*
X2067770D01*
G01Y2415260D02*
X2059890D01*
G01X2067770Y2423140D02*
Y2415260D01*
G01X2085290D02*
Y2423140D01*
G01D02*
X2093170D01*
G01Y2415260D02*
X2085290D01*
G01X2093170Y2423140D02*
Y2415260D01*
G01X2059890Y2440660D02*
Y2448540D01*
G01D02*
X2067770D01*
G01Y2440660D02*
X2059890D01*
G01X2067770Y2448540D02*
Y2440660D01*
G01X2093170D02*
X2085290D01*
G01D02*
Y2448540D01*
G01X2093170D02*
Y2440660D01*
G01X2085290Y2448540D02*
X2093170D01*
G01X2533290Y2459840D02*
Y2200760D01*
G01D02*
X2483770D01*
G01D02*
Y2459840D01*
G01X2491890Y2237460D02*
Y2245340D01*
G01D02*
X2499770D01*
G01Y2237460D02*
X2491890D01*
G01X2499770Y2245340D02*
Y2237460D01*
G01X2517290D02*
Y2245340D01*
G01D02*
X2525170D01*
G01Y2237460D02*
X2517290D01*
G01X2525170Y2245340D02*
Y2237460D01*
G01X2491890Y2262860D02*
Y2270740D01*
G01D02*
X2499770D01*
G01Y2262860D02*
X2491890D01*
G01X2499770Y2270740D02*
Y2262860D01*
G01X2517290D02*
Y2270740D01*
G01D02*
X2525170D01*
G01Y2262860D02*
X2517290D01*
G01X2525170Y2270740D02*
Y2262860D01*
G01X2491890Y2288260D02*
Y2296140D01*
G01D02*
X2499770D01*
G01Y2288260D02*
X2491890D01*
G01X2499770Y2296140D02*
Y2288260D01*
G01X2517290D02*
Y2296140D01*
G01D02*
X2525170D01*
G01Y2288260D02*
X2517290D01*
G01X2525170Y2296140D02*
Y2288260D01*
G01X2491890Y2313660D02*
Y2321540D01*
G01D02*
X2499770D01*
G01Y2313660D02*
X2491890D01*
G01X2499770Y2321540D02*
Y2313660D01*
G01X2517290D02*
Y2321540D01*
G01D02*
X2525170D01*
G01Y2313660D02*
X2517290D01*
G01X2525170Y2321540D02*
Y2313660D01*
G01X2491890Y2339060D02*
Y2346940D01*
G01D02*
X2499770D01*
G01Y2339060D02*
X2491890D01*
G01X2499770Y2346940D02*
Y2339060D01*
G01X2517290D02*
Y2346940D01*
G01D02*
X2525170D01*
G01Y2339060D02*
X2517290D01*
G01X2525170Y2346940D02*
Y2339060D01*
G01X2491890Y2364460D02*
Y2372340D01*
G01X2499770Y2364460D02*
X2491890D01*
G01X2499770Y2372340D02*
Y2364460D01*
G01X2517290D02*
Y2372340D01*
G01X2525170Y2364460D02*
X2517290D01*
G01X2525170Y2372340D02*
Y2364460D01*
G01X2491890Y2212060D02*
Y2219940D01*
G01D02*
X2499770D01*
G01Y2212060D02*
X2491890D01*
G01X2499770Y2219940D02*
Y2212060D01*
G01X2525170Y2219940D02*
Y2212060D01*
G01D02*
X2517290D01*
G01Y2219940D02*
X2525170D01*
G01X2517290Y2212060D02*
Y2219940D01*
G01X2483770Y2459840D02*
X2533290D01*
G01X2491890Y2372340D02*
X2499770D01*
G01X2517290D02*
X2525170D01*
G01X2491890Y2389860D02*
Y2397740D01*
G01D02*
X2499770D01*
G01Y2389860D02*
X2491890D01*
G01X2499770Y2397740D02*
Y2389860D01*
G01X2517290D02*
Y2397740D01*
G01D02*
X2525170D01*
G01Y2389860D02*
X2517290D01*
G01X2525170Y2397740D02*
Y2389860D01*
G01X2491890Y2415260D02*
Y2423140D01*
G01D02*
X2499770D01*
G01Y2415260D02*
X2491890D01*
G01X2499770Y2423140D02*
Y2415260D01*
G01X2517290D02*
Y2423140D01*
G01D02*
X2525170D01*
G01Y2415260D02*
X2517290D01*
G01X2525170Y2423140D02*
Y2415260D01*
G01X2491890Y2440660D02*
Y2448540D01*
G01D02*
X2499770D01*
G01Y2440660D02*
X2491890D01*
G01X2499770Y2448540D02*
Y2440660D01*
G01X2525170D02*
X2517290D01*
G01D02*
Y2448540D01*
G01X2525170D02*
Y2440660D01*
G01X2517290Y2448540D02*
X2525170D01*
M02*
