G04 ================== begin FILE IDENTIFICATION RECORD ==================*
G04 Layout Name:  C:/kht/work/BOOSTXL-CC2650MA/Cadence/Allegro/BOOSTXL-CC2650MA.brd*
G04 Film Name:    BOOSTXL-CC2650MA_Bottom*
G04 File Format:  Gerber RS274X*
G04 File Origin:  Cadence Allegro 16.6-S019*
G04 Origin Date:  Mon Apr 25 16:09:05 2016*
G04 *
G04 Layer:  BOARD GEOMETRY/OUTLINE*
G04 Layer:  VIA CLASS/BOTTOM*
G04 Layer:  PIN/BOTTOM*
G04 Layer:  ETCH/BOTTOM*
G04 *
G04 Offset:    (0.000 0.000)*
G04 Mirror:    No*
G04 Mode:      Positive*
G04 Rotation:  0*
G04 FullContactRelief:  No*
G04 UndefLineWidth:     0.099*
G04 ================== end FILE IDENTIFICATION RECORD ====================*
%FSLAX44Y44*MOMM*%
%IR0*IPPOS*OFA0.00000B0.00000*MIA0B0*SFA1.00000B1.00000*%
%ADD13C,1.7*%
%ADD12C,1.65*%
%ADD11C,.4*%
%ADD10O,.025X.051*%
%ADD14C,.3*%
%ADD15C,.099*%
%ADD16C,.15*%
%ADD18C,2.004*%
%ADD17C,1.954*%
G75*
%LPD*%
G75*
G36*
G01X1895500Y2196000D02*
G02X1894500Y2197000I0J1000D01*
G01Y2463000D01*
G02X1895500Y2464000I1000J0D01*
G01X2573000D01*
G02X2574000Y2463000I0J-1000D01*
G01Y2197000D01*
G02X2573000Y2196000I-1000J0D01*
G01X2185380D01*
G02X2184380Y2196990I0J1000D01*
G01Y2197000D01*
G03X2184080Y2197710I-1003J-5D01*
G01X2183770Y2198020D01*
G02X2183550Y2199110I706J710D01*
G02X2184480Y2199730I926J-381D01*
G01X2200880D01*
G02X2201570Y2199450I-4J-1000D01*
G03Y2204550I2430J2550D01*
G02X2200880Y2204270I-694J720D01*
G01X2184120D01*
G02X2183430Y2204550I4J1000D01*
G03X2177500Y2202430I-2433J-2547D01*
G02X2177280Y2201920I-992J126D01*
G01X2176890Y2201450D01*
G02X2176540Y2201180I-771J637D01*
G03X2176250Y2200980I413J-909D01*
G01X2172980Y2197710D01*
G03X2172690Y2197010I710J-704D01*
G01Y2197000D01*
G02X2171690Y2196000I-1000J0D01*
G01X1895500D01*
G37*
%LPC*%
G75*
G36*
G01X1950960Y2239620D02*
X1950970D01*
G02X1944950Y2241430I-3468J-618D01*
G03X1945230Y2242120I-719J694D01*
G01Y2271100D01*
G03X1944610Y2272030I-1001J4D01*
G03X1943520Y2271810I-380J-926D01*
G01X1939230Y2267520D01*
G02X1938530Y2267230I-704J710D01*
G01X1936620D01*
G03X1935930Y2266950I4J-999D01*
G02Y2272050I-2430J2550D01*
G03X1936620Y2271770I694J719D01*
G01X1936650D01*
G03X1937350Y2272060I-4J1000D01*
G01X1938290Y2273000D01*
G03Y2274410I-709J705D01*
G01X1938280Y2274420D01*
G03X1937890Y2274660I-705J-709D01*
G02X1936450Y2280430I1109J3341D01*
G03X1936730Y2281120I-719J694D01*
G01Y2296530D01*
G02X1937020Y2297230I1000J-4D01*
G01X1977770Y2337980D01*
G02X1978470Y2338270I704J-710D01*
G01X2030080D01*
G03X2030780Y2338560I-4J1000D01*
G01X2054970Y2362750D01*
G03X2055150Y2363910I-709J704D01*
G01Y2363920D01*
G02X2071200Y2374810I8683J4475D01*
G01X2071210D01*
G03X2072310Y2374530I752J655D01*
G01X2074080Y2375190D01*
G03X2074730Y2376120I-349J936D01*
G01Y2379280D01*
G03X2074440Y2379980I-1000J-4D01*
G01X2069480Y2384940D01*
G03X2068310Y2385120I-708J-708D01*
G02X2072510Y2389320I-4480J8680D01*
G01Y2389310D01*
G03X2072690Y2388150I889J-456D01*
G01X2078980Y2381860D01*
G02X2079270Y2381160I-710J-704D01*
G01Y2377090D01*
G03X2079870Y2376170I1001J-3D01*
G01X2081560Y2375430D01*
G03X2082630Y2375610I396J916D01*
G01X2082640D01*
G02X2081620Y2362270I6590J-7213D01*
G03X2080900Y2362640I-778J-628D01*
G01X2079400Y2362720D01*
G03X2078640Y2362430I-54J-998D01*
G01X2069730Y2353520D01*
G02X2069030Y2353230I-704J710D01*
G01X2068970D01*
X2068390Y2352650D01*
Y2352220D01*
G03X2068880Y2351370I999J10D01*
G01Y2351360D01*
G02X2072510Y2338520I-5051J-8361D01*
G01Y2338510D01*
G03X2072690Y2337350I889J-456D01*
G01X2080480Y2329560D01*
G02X2080770Y2328860I-710J-704D01*
G01Y2327450D01*
G03X2081290Y2326570I1002J-2D01*
G01X2082850Y2325730D01*
G03X2083880Y2325770I482J879D01*
G01Y2325780D01*
G02X2096390Y2310960I5346J-8177D01*
G03X2096130Y2310280I741J-673D01*
G01Y2310270D01*
G03X2097130Y2309270I1000J0D01*
G01X2097530D01*
G02X2098230Y2308980I-4J-1000D01*
G01X2150980Y2256230D01*
G02X2151270Y2255530I-710J-704D01*
G01Y2246410D01*
G03X2151540Y2245730I1000J3D01*
G01X2151960Y2245280D01*
G03X2152540Y2244980I724J690D01*
G02X2148480Y2241420I-540J-3479D01*
G03X2148190Y2242100I-999J-24D01*
G01X2147020Y2243270D01*
G02X2146730Y2243970I710J704D01*
G01Y2253650D01*
G03X2146440Y2254350I-1000J-4D01*
G01X2096350Y2304440D01*
G03X2095650Y2304730I-704J-710D01*
G01X2083970D01*
G02X2083270Y2305020I4J1000D01*
G01X2076520Y2311770D01*
G02X2076230Y2312470I710J704D01*
G01Y2326980D01*
G03X2075940Y2327680I-1000J-4D01*
G01X2069480Y2334140D01*
G03X2068320Y2334320I-704J-709D01*
G01X2068310D01*
G02X2054230Y2344830I-4482J8681D01*
G03X2053720Y2345900I-980J190D01*
G01X2052020Y2346810D01*
G03X2050840Y2346630I-469J-885D01*
G01X2035230Y2331020D01*
G02X2034530Y2330730I-704J710D01*
G01X2000250D01*
G03X1999440Y2330320I-2J-1001D01*
G01X1998490Y2329000D01*
G03X1998340Y2328100I804J-596D01*
G01X1998350D01*
G02X1995080Y2323480I-3347J-1099D01*
G03X1994400Y2323190I24J-999D01*
G01X1962460Y2291250D01*
G03X1962170Y2290550I710J-704D01*
G01Y2252220D01*
G03X1962450Y2251530I999J4D01*
G02X1958860Y2245740I-2549J-2428D01*
G03X1958100Y2245670I-295J-957D01*
G01X1956840Y2245010D01*
G03X1956350Y2244430I462J-888D01*
G02X1952960Y2241980I-3353J1069D01*
G03X1952190Y2241630I-10J-1000D01*
G01X1951190Y2240440D01*
G03X1950960Y2239620I756J-654D01*
G37*
G36*
G01X2023190Y2346100D02*
X1991600Y2377690D01*
G03X1990920Y2377980I-704J-709D01*
G02X1994520Y2381580I80J3520D01*
G03X1994810Y2380900I999J24D01*
G01X2026400Y2349310D01*
G03X2027080Y2349020I704J709D01*
G02X2023480Y2345420I-80J-3520D01*
G03X2023190Y2346100I-999J-24D01*
G37*
G36*
G01X2112480Y2326920D02*
G03X2112190Y2327600I-1000J-25D01*
G01X2106020Y2333770D01*
G02X2105730Y2334470I710J704D01*
G01Y2392650D01*
G03X2105440Y2393350I-1000J-4D01*
G01X2102370Y2396420D01*
G03X2101230Y2396620I-711J-705D01*
G01X2099520Y2395800D01*
G03X2098950Y2394800I424J-904D01*
G01Y2394790D01*
G02X2081640Y2399950I-9719J-991D01*
G01X2081650Y2399960D01*
G03X2081770Y2401020I-781J625D01*
G01X2080990Y2402660D01*
G03X2080090Y2403230I-903J-430D01*
G01X2077000D01*
G02X2076300Y2403520I4J1000D01*
G01X2069240Y2410580D01*
X2068610Y2410670D01*
X2068310Y2410520D01*
G02X2072500Y2414720I-4492J8671D01*
G03X2072690Y2413550I892J-456D01*
G01X2078180Y2408060D01*
G03X2078880Y2407770I704J710D01*
G01X2082160D01*
G03X2083110Y2408450I2J1001D01*
G01X2083710Y2410270D01*
G03X2083370Y2411380I-947J317D01*
G01X2083360Y2411390D01*
G02X2095100I5870J7810D01*
G01X2095090Y2411380D01*
G03X2094750Y2410270I607J-793D01*
G01X2095350Y2408450D01*
G03X2096300Y2407770I948J321D01*
G01X2097030D01*
G02X2097730Y2407480I-4J-1000D01*
G01X2109980Y2395230D01*
G02X2110270Y2394530I-710J-704D01*
G01Y2336350D01*
G03X2110560Y2335650I1000J4D01*
G01X2115400Y2330810D01*
G03X2116080Y2330520I705J710D01*
G02X2112480Y2326920I-80J-3520D01*
G37*
G36*
G01X2031270Y2413380D02*
Y2359120D01*
G03X2031550Y2358430I999J4D01*
G02X2026450I-2550J-2430D01*
G03X2026730Y2359120I-719J694D01*
G01Y2413380D01*
G03X2026450Y2414070I-999J-4D01*
G02X2031550I2550J2430D01*
G03X2031270Y2413380I719J-694D01*
G37*
G36*
G01X2331560Y2257710D02*
X2331570D01*
G03X2332130Y2258440I-425J905D01*
G01X2332430Y2260070D01*
G03X2332160Y2260960I-981J188D01*
G01X2232030Y2361090D01*
G03X2231330Y2361380I-704J-710D01*
G01X2231320D01*
G02X2230620Y2361670I4J1000D01*
G01X2229600Y2362690D01*
G03X2228920Y2362980I-705J-710D01*
G02X2232500Y2366830I77J3518D01*
G01X2232550Y2366320D01*
X2232700Y2366010D01*
X2232790Y2365920D01*
X2233210D01*
G02X2233910Y2365630I-4J-1000D01*
G01X2346990Y2252550D01*
G03X2347650Y2252260I706J710D01*
G01X2348250Y2252240D01*
G03X2348860Y2252410I51J997D01*
G02X2353710Y2247450I1991J-2904D01*
G03X2353630Y2246410I810J-585D01*
G01X2354450Y2244810D01*
G03X2355340Y2244270I888J461D01*
G01X2447670D01*
G03X2448370Y2244560I-4J1000D01*
G01X2487490Y2283680D01*
G02X2488190Y2283970I704J-710D01*
G01X2488260D01*
X2488840Y2284550D01*
Y2284980D01*
G03X2488580Y2285640I-998J-12D01*
G01Y2285650D01*
G02X2502370Y2299450I7248J6548D01*
G01X2502380D01*
Y2299440D01*
G03X2503440Y2299280I656J754D01*
G01X2505130Y2300030D01*
G03X2505730Y2300940I-398J915D01*
G01Y2304900D01*
G02X2506020Y2305600I1000J-4D01*
G01X2512610Y2312190D01*
X2512700Y2312820D01*
X2512550Y2313120D01*
G02X2516750Y2308930I8671J4492D01*
G03X2515580Y2308740I-456J-892D01*
G01X2510560Y2303720D01*
G03X2510270Y2303020I710J-704D01*
G01Y2299860D01*
G03X2510920Y2298920I1000J-3D01*
G01X2512700Y2298260D01*
G03X2513800Y2298540I347J938D01*
G01X2513810Y2298550D01*
G02X2512200Y2288460I7419J-6357D01*
G01X2512080Y2288750D01*
X2511590Y2289080D01*
X2511270D01*
G03X2510270Y2288080I0J-1000D01*
G01Y2285970D01*
G02X2509980Y2285270I-1000J4D01*
G01X2504430Y2279720D01*
G02X2503730Y2279430I-704J710D01*
G01X2490070D01*
G03X2489370Y2279140I4J-1000D01*
G01X2450250Y2240020D01*
G02X2449550Y2239730I-704J710D01*
G01X2283620D01*
G03X2282930Y2239450I4J-999D01*
G02Y2244550I-2430J2550D01*
G03X2283620Y2244270I694J719D01*
G01X2349240D01*
G03X2350240Y2245270I0J1000D01*
G01Y2245590D01*
X2349880Y2246100D01*
X2349590Y2246210D01*
G02X2348420Y2246950I1261J3288D01*
G03X2347730Y2247230I-694J-719D01*
G01X2346300D01*
G02X2345600Y2247520I4J1000D01*
G01X2339460Y2253660D01*
G03X2338570Y2253930I-702J-711D01*
G01X2336940Y2253630D01*
G03X2336210Y2253070I175J-985D01*
G01Y2253060D01*
G02X2330570Y2251950I-3213J1439D01*
G03X2329880Y2252230I-694J-719D01*
G01X2318970D01*
G02X2318270Y2252520I4J1000D01*
G01X2203350Y2367440D01*
G03X2202670Y2367730I-705J-710D01*
G02X2206270Y2371330I80J3520D01*
G01X2206280Y2371130D01*
X2206420Y2370790D01*
X2320150Y2257060D01*
G03X2320850Y2256770I704J710D01*
G01X2329880D01*
G03X2330570Y2257050I-4J999D01*
G02X2331560Y2257710I2420J-2557D01*
G37*
G36*
G01X2014810Y2314900D02*
X2018980Y2310730D01*
G02X2019270Y2310030I-710J-704D01*
G01Y2291620D01*
G03X2019550Y2290930I999J4D01*
G02X2014450I-2550J-2430D01*
G03X2014730Y2291620I-719J694D01*
G01Y2308150D01*
G03X2014440Y2308850I-1000J-4D01*
G01X2011600Y2311690D01*
G03X2010920Y2311980I-704J-709D01*
G02X2008570Y2312950I78J3520D01*
G03X2007880Y2313230I-694J-719D01*
G01X1995850D01*
G03X1995150Y2312940I4J-1000D01*
G01X1975160Y2292950D01*
G03X1974870Y2292250I710J-704D01*
G01Y2250020D01*
G03X1975150Y2249330I999J4D01*
G02X1970050I-2550J-2430D01*
G03X1970330Y2250020I-719J694D01*
G01Y2294130D01*
G02X1970620Y2294830I1000J-4D01*
G01X1993270Y2317480D01*
G02X1993970Y2317770I704J-710D01*
G01X2007880D01*
G03X2008570Y2318050I-4J999D01*
G02X2014520Y2315580I2430J-2548D01*
G03X2014810Y2314900I999J24D01*
G37*
G36*
G01X1993900Y2300190D02*
X1987860Y2294150D01*
G03X1987570Y2293450I710J-704D01*
G01Y2249420D01*
G03X1987850Y2248730I999J4D01*
G02X1982750I-2550J-2430D01*
G03X1983030Y2249420I-719J694D01*
G01Y2295330D01*
G02X1983320Y2296030I1000J-4D01*
G01X1990690Y2303400D01*
G03X1990980Y2304080I-709J704D01*
G02X1994580Y2300480I3520J-80D01*
G03X1993900Y2300190I24J-999D01*
G37*
G36*
G01X2070550Y2223090D02*
G02X2057110I-6720J-7090D01*
G03X2057350Y2224190I-687J726D01*
G01X2056660Y2225930D01*
G03X2055730Y2226560I-929J-370D01*
G01X2004580D01*
G02X2003880Y2226850I4J1000D01*
G01X1997330Y2233400D01*
G03X1996920Y2233650I-711J-704D01*
G02X2001350Y2238080I1080J3350D01*
G03X2001600Y2237670I954J301D01*
G01X2006380Y2232890D01*
G03X2007090Y2232600I704J710D01*
G01X2054210D01*
G03X2055100Y2233140I1J1001D01*
G01X2055920Y2234730D01*
G03X2055850Y2235770I-888J463D01*
G02X2071810I7980J5630D01*
G03X2071740Y2234730I818J-577D01*
G01X2072560Y2233140D01*
G03X2073450Y2232600I889J461D01*
G01X2079610D01*
G03X2080500Y2233140I1J1001D01*
G01X2081320Y2234730D01*
G03X2081250Y2235770I-888J463D01*
G02X2097210I7980J5630D01*
G03X2097140Y2234730I818J-577D01*
G01X2097960Y2233140D01*
G03X2098850Y2232600I889J461D01*
G01X2158410D01*
G03X2159120Y2232890I6J1000D01*
G01X2174520Y2248290D01*
G03Y2249710I-705J710D01*
G01X2136770Y2287460D01*
G02X2136480Y2288160I710J704D01*
G01Y2357340D01*
G02X2136770Y2358040I1000J-4D01*
G01X2160690Y2381960D01*
G03X2160980Y2382670I-710J704D01*
G01Y2385740D01*
G03X2160350Y2386670I-1000J1D01*
G01X2160340D01*
G02X2167660I3660J9330D01*
G01X2167650D01*
G03X2167020Y2385740I370J-929D01*
G01Y2384150D01*
G03X2167640Y2383220I1001J-4D01*
G03X2168730Y2383440I380J926D01*
G01X2169770Y2384480D01*
G02X2170470Y2384770I704J-710D01*
G01X2184280D01*
G03X2185220Y2385430I-1J1001D01*
G01X2185860Y2387210D01*
G03X2185570Y2388320I-937J348D01*
G01X2185560D01*
G02X2198440I6440J7680D01*
G01X2198430D01*
G03X2198140Y2387210I647J-762D01*
G01X2198780Y2385430D01*
G03X2199720Y2384770I941J341D01*
G01X2245150D01*
G03X2245850Y2385060I-4J1000D01*
G01X2270690Y2409900D01*
G03X2270980Y2410580I-709J704D01*
G02X2276980Y2413000I3520J-79D01*
G03X2277690Y2412710I704J709D01*
G01X2279110D01*
G03X2279810Y2413000I-4J1000D01*
G01X2281950Y2415140D01*
G03X2282240Y2415820I-709J704D01*
G02X2285840Y2412220I3520J-80D01*
G03X2285160Y2411930I24J-999D01*
G01X2250500Y2377270D01*
G02X2249800Y2376980I-704J710D01*
G01X2173580D01*
G03X2172880Y2376690I4J-1000D01*
G01X2168880Y2372690D01*
G03X2168590Y2371850I703J-713D01*
G01X2168800Y2370270D01*
G03X2169280Y2369540I989J128D01*
G02X2170050Y2364070I-1779J-3040D01*
G03X2169770Y2363380I719J-694D01*
G01Y2351350D01*
G03X2170060Y2350650I1000J4D01*
G01X2247400Y2273310D01*
G03X2248080Y2273020I704J709D01*
G02X2244480Y2269420I-80J-3520D01*
G03X2244190Y2270100I-999J-24D01*
G01X2165520Y2348770D01*
G02X2165230Y2349470I710J704D01*
G01Y2363380D01*
G03X2164950Y2364070I-999J-4D01*
G02X2164460Y2364720I2548J2431D01*
G03X2163730Y2365200I-858J-509D01*
G01X2162150Y2365410D01*
G03X2161310Y2365120I-127J-993D01*
G01X2149310Y2353120D01*
G03X2149020Y2352420I710J-704D01*
G01Y2302030D01*
G03X2149310Y2301320I1001J-5D01*
G01X2150310Y2300310D01*
G03X2151020Y2300020I705J712D01*
G02X2153430Y2299050I-17J-3521D01*
G03X2154120Y2298770I694J719D01*
G01X2202530D01*
G02X2203230Y2298480I-4J-1000D01*
G01X2247150Y2254560D01*
G03X2247850Y2254270I704J710D01*
G01X2275880D01*
G03X2276570Y2254550I-4J999D01*
G02Y2249450I2430J-2550D01*
G03X2275880Y2249730I-694J-719D01*
G01X2245970D01*
G02X2245270Y2250020I4J1000D01*
G01X2201350Y2293940D01*
G03X2200650Y2294230I-704J-710D01*
G01X2195170D01*
G03X2194240Y2293610I-4J-1001D01*
G03X2194460Y2292520I926J-380D01*
G01X2200400Y2286580D01*
G03X2201080Y2286290I704J709D01*
G02X2197480Y2282690I-80J-3520D01*
G03X2197190Y2283370I-999J-24D01*
G01X2191120Y2289440D01*
G03X2190420Y2289730I-704J-710D01*
G01X2149880D01*
G03X2148950Y2289110I-4J-1001D01*
G03X2149170Y2288020I926J-380D01*
G01X2196140Y2241050D01*
G03X2196800Y2240760I705J709D01*
G01X2197400Y2240730D01*
G03X2198010Y2240910I37J998D01*
G02X2201730Y2234930I1990J-2909D01*
G03X2201260Y2234360I482J-876D01*
G01X2200850Y2233040D01*
G03X2200910Y2232300I957J-295D01*
G02X2194400Y2229670I-3160J-1551D01*
G03X2194150Y2230080I-954J-301D01*
G01X2180670Y2243560D01*
G03X2179960Y2243850I-704J-710D01*
G01X2179040D01*
G03X2178330Y2243560I-6J-1000D01*
G01X2161620Y2226850D01*
G02X2160920Y2226560I-704J710D01*
G01X2097330D01*
G03X2096400Y2225930I-1J-1000D01*
G01X2095710Y2224190D01*
G03X2095950Y2223090I927J-374D01*
G02X2082510I-6720J-7090D01*
G03X2082750Y2224190I-687J726D01*
G01X2082060Y2225930D01*
G03X2081130Y2226560I-929J-370D01*
G01X2071930D01*
G03X2071000Y2225930I-1J-1000D01*
G01X2070310Y2224190D01*
G03X2070550Y2223090I927J-374D01*
G37*
G54D18*
X2312000Y2211000D03*
G54D17*
X2495830Y2444600D03*
Y2419200D03*
Y2393800D03*
Y2368400D03*
X2521230Y2444600D03*
Y2419200D03*
Y2393800D03*
Y2368400D03*
X2495830Y2343000D03*
Y2317600D03*
Y2266800D03*
Y2241400D03*
Y2216000D03*
X2521230Y2343000D03*
Y2266800D03*
Y2241400D03*
Y2216000D03*
X2189000Y2444000D03*
X2163600D03*
X2063830Y2444600D03*
X2089230D03*
X2063830Y2317600D03*
Y2292200D03*
Y2266800D03*
X2089230Y2343000D03*
Y2292200D03*
Y2266800D03*
%LPD*%
G75*
G54D10*
X1892500Y2202000D03*
G54D11*
X1939000Y2278000D03*
X1998000Y2237000D03*
X1905000Y2203000D03*
X1934500Y2303000D03*
X1913500Y2217500D03*
X1903500Y2235000D03*
X1904500Y2259500D03*
X1904000Y2303000D03*
Y2325500D03*
X1905000Y2342000D03*
X1934000Y2217000D03*
X1912500Y2231000D03*
X1934500Y2249500D03*
X1911500Y2277000D03*
X1931000Y2230500D03*
X1933000Y2205500D03*
X2011500Y2245000D03*
X2007000Y2210500D03*
X1972000Y2353500D03*
X1976500Y2348000D03*
X1986500Y2364500D03*
X1993500Y2346000D03*
X2004500Y2283000D03*
X1921000Y2246000D03*
X1921500Y2254500D03*
X1965730Y2357910D03*
X1954000Y2352000D03*
X1924120Y2311250D03*
X1915140Y2302270D03*
X1904950Y2359330D03*
X1917650D03*
X1930350D03*
X1942300Y2355040D03*
X1926770Y2335580D03*
X1917740Y2326650D03*
X1908760Y2317670D03*
X1926250Y2341150D03*
X1926650Y2324150D03*
X1933500Y2269500D03*
X1994500Y2304000D03*
X1985300Y2246300D03*
X2011000Y2315500D03*
X1972600Y2246900D03*
X1995000Y2327000D03*
X1959900Y2249100D03*
X1947500Y2239000D03*
X1982000Y2327500D03*
X1956500Y2294500D03*
X1953000Y2245500D03*
X1991000Y2381500D03*
X1933500Y2425500D03*
X1977000Y2423000D03*
X1995500Y2414500D03*
X1962000Y2381000D03*
X1979000Y2380500D03*
X1929500Y2405500D03*
X1913000Y2444500D03*
X1910000Y2400000D03*
X1906500Y2422000D03*
X1954000Y2425000D03*
X1962500Y2397500D03*
X1945000Y2451500D03*
X1987500Y2452500D03*
X2001500Y2445500D03*
X1970500Y2442500D03*
X1927500Y2445000D03*
X1939000Y2397500D03*
X1902920Y2374730D03*
X1915620D03*
X1928320D03*
X1941020D03*
X1953720D03*
X1965730Y2370610D03*
X2152000Y2241500D03*
X2151000Y2296500D03*
X2027000Y2345500D03*
X2029000Y2356000D03*
X2167500Y2366500D03*
X2131000Y2244500D03*
X2147500Y2271500D03*
X2127000Y2287000D03*
X2126500Y2210500D03*
X2046000Y2209500D03*
X2036500Y2255500D03*
X2039000Y2301500D03*
X2043500Y2316000D03*
X2044500Y2367500D03*
X2130500Y2363000D03*
X2164000Y2338500D03*
X2118000Y2337500D03*
X2102000Y2348500D03*
X2107000Y2325500D03*
X2112500Y2263500D03*
X2108500Y2241000D03*
X2163500Y2224500D03*
X2113500Y2219500D03*
X2026000Y2241500D03*
Y2208000D03*
X2018000Y2366500D03*
X2022500Y2275000D03*
X2020000Y2328500D03*
X2021500Y2313500D03*
X2018500Y2255000D03*
X2016000Y2223500D03*
X2130500Y2321500D03*
X2116000Y2327000D03*
X2017000Y2288500D03*
X2181000Y2202000D03*
X2029000Y2416500D03*
X2108500Y2402000D03*
X2114500Y2391000D03*
X2107000Y2442500D03*
X2136000Y2447000D03*
X2153500Y2422000D03*
X2101500Y2374000D03*
X2022000Y2381500D03*
X2023500Y2413500D03*
X2022000Y2441500D03*
X2020500Y2453500D03*
X2279000Y2252000D03*
X2280500Y2242000D03*
X2248000Y2269500D03*
X2197750Y2230750D03*
X2201000Y2282770D03*
X2318500Y2266500D03*
X2300500Y2284000D03*
X2295000Y2268000D03*
X2264500Y2213000D03*
X2261000Y2199500D03*
X2219000Y2198500D03*
X2232500Y2210000D03*
X2246000Y2222500D03*
X2289000Y2224000D03*
X2200500Y2306500D03*
X2205000Y2321500D03*
X2215500Y2334000D03*
X2317500Y2297500D03*
X2267000Y2354500D03*
X2259000Y2326500D03*
X2306000Y2315500D03*
X2293000Y2200000D03*
X2202500Y2275500D03*
X2221500Y2246500D03*
X2217500Y2263500D03*
X2270500Y2283500D03*
X2267500Y2239500D03*
X2253500Y2277000D03*
X2260000Y2291500D03*
X2241500Y2301500D03*
X2224500Y2305500D03*
X2255000Y2238000D03*
X2336000Y2359000D03*
X2307500Y2354500D03*
X2254000Y2367500D03*
X2357500Y2272000D03*
X2366000Y2296500D03*
X2339000Y2204000D03*
X2204000Y2202000D03*
X2200000Y2238000D03*
X2229000Y2366500D03*
X2350850Y2249500D03*
X2333000Y2254500D03*
X2285760Y2415740D03*
X2213500Y2391000D03*
X2200500Y2424500D03*
X2201000Y2457000D03*
X2285500Y2452000D03*
X2238000Y2405000D03*
X2336000Y2412000D03*
X2359500Y2413500D03*
X2313500Y2417500D03*
X2299000Y2424500D03*
Y2442000D03*
X2359500Y2431500D03*
X2336000Y2448000D03*
X2339000Y2437500D03*
X2324500Y2385500D03*
X2255000Y2452000D03*
X2213000Y2411000D03*
X2275500Y2392500D03*
X2365500Y2380000D03*
X2280500Y2421000D03*
X2274500Y2410500D03*
X2202750Y2371250D03*
X2484500Y2354500D03*
X2480500Y2330000D03*
X2467500Y2347500D03*
X2372000Y2315500D03*
X2433500Y2316000D03*
X2405500Y2280500D03*
X2370000Y2354500D03*
X2459000Y2330500D03*
X2476000Y2308000D03*
X2450500Y2264000D03*
X2477500Y2280500D03*
X2476000Y2244000D03*
X2388500Y2217500D03*
X2478500D03*
X2540000Y2207000D03*
X2536000Y2242500D03*
X2430000Y2412000D03*
X2509500Y2381500D03*
X2482000Y2388000D03*
X2460500Y2378000D03*
X2392000Y2391000D03*
X2438000Y2391500D03*
X2412500Y2431500D03*
X2479500Y2446000D03*
X2374500Y2440500D03*
X2470000Y2422500D03*
X2380500Y2450000D03*
X2568000Y2226000D03*
X2568500Y2295000D03*
X2546500Y2276500D03*
X2547000Y2352000D03*
X2567000Y2340500D03*
Y2445000D03*
X2549500Y2391000D03*
X2552500Y2457500D03*
G54D12*
X2089230Y2216000D03*
Y2241400D03*
Y2266800D03*
Y2292200D03*
Y2317600D03*
Y2343000D03*
Y2368400D03*
X2063830Y2216000D03*
Y2241400D03*
Y2266800D03*
Y2292200D03*
Y2317600D03*
Y2343000D03*
Y2368400D03*
X2089230Y2393800D03*
Y2419200D03*
Y2444600D03*
X2063830Y2393800D03*
Y2419200D03*
Y2444600D03*
X2163600Y2444000D03*
X2189000D03*
X2521230Y2216000D03*
Y2241400D03*
Y2266800D03*
Y2292200D03*
Y2317600D03*
Y2343000D03*
Y2368400D03*
X2495830Y2216000D03*
Y2241400D03*
Y2266800D03*
Y2292200D03*
Y2317600D03*
Y2343000D03*
Y2368400D03*
X2521230Y2393800D03*
Y2419200D03*
Y2444600D03*
X2495830Y2393800D03*
Y2419200D03*
Y2444600D03*
G54D13*
X2164000Y2396000D03*
X2192000D03*
X2312000Y2211000D03*
G54D14*
G01X2181630Y2246870D02*
X2177370D01*
X2160080Y2229580D01*
X2005420D01*
X1998000Y2237000D01*
G01X2197750Y2230750D02*
X2181630Y2246870D01*
G01D02*
X2139500Y2289000D01*
Y2356500D01*
X2164000Y2381000D01*
Y2396000D01*
G01X2312000Y2199980D02*
Y2211000D01*
G01D02*
Y2222020D01*
G01X2300980Y2211000D02*
X2312000D01*
G01D02*
X2323020D01*
G01X2521230Y2433830D02*
Y2444600D01*
G01D02*
Y2455370D01*
G01X2510460Y2444600D02*
X2521230D01*
G01D02*
X2532000D01*
G54D15*
G01X1830000Y2470000D02*
X1829980Y2190000D01*
X2583000D01*
Y2470000D01*
X1830000D01*
G54D16*
G01X1939000Y2278000D02*
Y2296000D01*
X1979000Y2336000D01*
X2031430D01*
X2063830Y2368400D01*
G01X1991000Y2381500D02*
X2027000Y2345500D01*
G01X2063830Y2393800D02*
X2077000Y2380630D01*
Y2364000D01*
X2068500Y2355500D01*
X2056500D01*
X2034000Y2333000D01*
X1980500D01*
X1943250Y2295750D01*
Y2274750D01*
X1938000Y2269500D01*
X1933500D01*
G01X1985300Y2246300D02*
Y2294800D01*
X1994500Y2304000D01*
G01X2017000Y2288500D02*
Y2309500D01*
X2011000Y2315500D01*
G01D02*
X1994500D01*
X1972600Y2293600D01*
Y2246900D01*
G01X1995000Y2327000D02*
X1959900Y2291900D01*
Y2249100D01*
G01X1982000Y2327500D02*
X1947500Y2293000D01*
Y2239000D01*
G01X1953000Y2245500D02*
Y2291000D01*
X1956500Y2294500D01*
G01X2152000Y2241500D02*
X2149000Y2244500D01*
Y2255000D01*
X2097000Y2307000D01*
X2084500D01*
X2078500Y2313000D01*
Y2328330D01*
X2063830Y2343000D01*
G01X2151000Y2296500D02*
X2202000D01*
X2246500Y2252000D01*
X2279000D01*
G01X2029000Y2356000D02*
Y2416500D01*
G01X2167500Y2366500D02*
Y2350000D01*
X2248000Y2269500D01*
G01X2201000Y2282770D02*
X2191770Y2292000D01*
X2148250D01*
X2146750Y2293500D01*
Y2353770D01*
X2172230Y2379250D01*
X2249270D01*
X2285760Y2415740D01*
G01X2116000Y2327000D02*
X2108000Y2335000D01*
Y2394000D01*
X2096500Y2405500D01*
X2077530D01*
X2063830Y2419200D01*
G01X2204000Y2202000D02*
X2181000D01*
G01X2200000Y2238000D02*
X2195980D01*
X2143500Y2290480D01*
Y2355000D01*
X2171000Y2382500D01*
X2246500D01*
X2274500Y2410500D01*
G01X2521230Y2317600D02*
X2508000Y2304370D01*
Y2286500D01*
X2503200Y2281700D01*
X2488720D01*
X2449020Y2242000D01*
X2280500D01*
G01X2229000Y2366500D02*
X2231850Y2363650D01*
X2232680D01*
X2346830Y2249500D01*
X2350850D01*
G01X2202750Y2371250D02*
X2319500Y2254500D01*
X2333000D01*
M02*
