G04 ================== begin FILE IDENTIFICATION RECORD ==================*
G04 Layout Name:  C:/kht/work/BOOSTXL-CC2650MA/Cadence/Allegro/BOOSTXL-CC2650MA.brd*
G04 Film Name:    BOOSTXL-CC2650MA_soldmask_top*
G04 File Format:  Gerber RS274X*
G04 File Origin:  Cadence Allegro 16.6-S019*
G04 Origin Date:  Mon Apr 25 16:09:05 2016*
G04 *
G04 Layer:  PACKAGE GEOMETRY/SOLDERMASK_TOP*
G04 Layer:  VIA CLASS/SOLDERMASK_TOP*
G04 Layer:  PIN/SOLDERMASK_TOP*
G04 Layer:  BOARD GEOMETRY/OUTLINE*
G04 *
G04 Offset:    (0.000 0.000)*
G04 Mirror:    No*
G04 Mode:      Positive*
G04 Rotation:  0*
G04 FullContactRelief:  No*
G04 UndefLineWidth:     0.099*
G04 ================== end FILE IDENTIFICATION RECORD ====================*
%FSLAX44Y44*MOMM*%
%IR0*IPPOS*OFA0.00000B0.00000*MIA0B0*SFA1.00000B1.00000*%
%AMMACRO21*
4,1,41,.337,0.0,
.337,.11,
.333734,.147334,
.324034,.183534,
.308195,.2175,
.2867,.248199,
.260199,.2747,
.2295,.296195,
.195534,.312034,
.159334,.321734,
.122,.325,
-.122,.325,
-.159334,.321734,
-.195534,.312034,
-.2295,.296195,
-.260199,.2747,
-.2867,.248199,
-.308195,.2175,
-.324034,.183534,
-.333734,.147334,
-.337,.11,
-.337,-.11,
-.333734,-.147334,
-.324034,-.183534,
-.308195,-.2175,
-.2867,-.248199,
-.260199,-.2747,
-.2295,-.296195,
-.195534,-.312034,
-.159334,-.321734,
-.122,-.325,
.122,-.325,
.159334,-.321734,
.195534,-.312034,
.2295,-.296195,
.260199,-.2747,
.2867,-.248199,
.308195,-.2175,
.324034,-.183534,
.333734,-.147334,
.337,-.11,
.337,0.0,
0.0*
%
%ADD21MACRO21*%
%AMMACRO19*
4,1,41,0.0,-.337,
.11,-.337,
.147334,-.333734,
.183534,-.324034,
.2175,-.308195,
.248199,-.2867,
.2747,-.260199,
.296195,-.2295,
.312034,-.195534,
.321734,-.159334,
.325,-.122,
.325,.122,
.321734,.159334,
.312034,.195534,
.296195,.2295,
.2747,.260199,
.248199,.2867,
.2175,.308195,
.183534,.324034,
.147334,.333734,
.11,.337,
-.11,.337,
-.147334,.333734,
-.183534,.324034,
-.2175,.308195,
-.248199,.2867,
-.2747,.260199,
-.296195,.2295,
-.312034,.195534,
-.321734,.159334,
-.325,.122,
-.325,-.122,
-.321734,-.159334,
-.312034,-.195534,
-.296195,-.2295,
-.2747,-.260199,
-.248199,-.2867,
-.2175,-.308195,
-.183534,-.324034,
-.147334,-.333734,
-.11,-.337,
0.0,-.337,
0.0*
%
%ADD19MACRO19*%
%ADD14R,1.05X.7*%
%ADD13R,.7X1.05*%
%ADD11C,1.42*%
%ADD16C,1.8*%
%ADD10O,.75X2.25*%
%ADD18C,1.85*%
%ADD12R,1.6X1.6*%
%ADD23R,.45X1.85*%
%AMMACRO24*
4,1,41,-.3,0.0,
-.3,-.075,
-.298101,-.096706,
-.292462,-.117753,
-.283253,-.1375,
-.270756,-.155348,
-.255348,-.170756,
-.2375,-.183253,
-.217753,-.192462,
-.196706,-.198101,
-.175,-.2,
.175,-.2,
.196706,-.198101,
.217753,-.192462,
.2375,-.183253,
.255348,-.170756,
.270756,-.155348,
.283253,-.1375,
.292462,-.117753,
.298101,-.096706,
.3,-.075,
.3,.075,
.298101,.096706,
.292462,.117753,
.283253,.1375,
.270756,.155348,
.255348,.170756,
.2375,.183253,
.217753,.192462,
.196706,.198101,
.175,.2,
-.175,.2,
-.196706,.198101,
-.217753,.192462,
-.2375,.183253,
-.255348,.170756,
-.270756,.155348,
-.283253,.1375,
-.292462,.117753,
-.298101,.096706,
-.3,.075,
-.3,0.0,
0.0*
%
%ADD24MACRO24*%
%AMMACRO17*
4,1,45,0.0,.574,
-.274,.574,
-.321783,.57017,
-.368174,.5581,
-.411765,.538158,
-.451231,.510949,
-.485372,.477301,
-.513152,.438235,
-.533726,.394939,
-.546469,.348728,
-.550995,.301006,
-.551,.3,
-.551,-.3,
-.54665,-.347738,
-.534075,-.393995,
-.51366,-.437367,
-.486023,-.476534,
-.452005,-.510307,
-.412639,-.53766,
-.369122,-.557761,
-.322775,-.57,
-.275006,-.574005,
-.274,-.574,
.274,-.574,
.321783,-.57017,
.368174,-.5581,
.411765,-.538158,
.451231,-.510949,
.485372,-.477301,
.513152,-.438235,
.533726,-.394939,
.546469,-.348728,
.550995,-.301006,
.551,-.3,
.551,.3,
.54665,.347738,
.534075,.393995,
.51366,.437367,
.486023,.476534,
.452005,.510307,
.412639,.53766,
.369122,.557761,
.322775,.57,
.275006,.574005,
.274,.574,
0.0,.574,
0.0*
%
%ADD17MACRO17*%
%AMMACRO22*
4,1,41,-.337,0.0,
-.337,-.11,
-.333734,-.147334,
-.324034,-.183534,
-.308195,-.2175,
-.2867,-.248199,
-.260199,-.2747,
-.2295,-.296195,
-.195534,-.312034,
-.159334,-.321734,
-.122,-.325,
.122,-.325,
.159334,-.321734,
.195534,-.312034,
.2295,-.296195,
.260199,-.2747,
.2867,-.248199,
.308195,-.2175,
.324034,-.183534,
.333734,-.147334,
.337,-.11,
.337,.11,
.333734,.147334,
.324034,.183534,
.308195,.2175,
.2867,.248199,
.260199,.2747,
.2295,.296195,
.195534,.312034,
.159334,.321734,
.122,.325,
-.122,.325,
-.159334,.321734,
-.195534,.312034,
-.2295,.296195,
-.260199,.2747,
-.2867,.248199,
-.308195,.2175,
-.324034,.183534,
-.333734,.147334,
-.337,.11,
-.337,0.0,
0.0*
%
%ADD22MACRO22*%
%AMMACRO20*
4,1,41,0.0,.337,
-.11,.337,
-.147334,.333734,
-.183534,.324034,
-.2175,.308195,
-.248199,.2867,
-.2747,.260199,
-.296195,.2295,
-.312034,.195534,
-.321734,.159334,
-.325,.122,
-.325,-.122,
-.321734,-.159334,
-.312034,-.195534,
-.296195,-.2295,
-.2747,-.260199,
-.248199,-.2867,
-.2175,-.308195,
-.183534,-.324034,
-.147334,-.333734,
-.11,-.337,
.11,-.337,
.147334,-.333734,
.183534,-.324034,
.2175,-.308195,
.248199,-.2867,
.2747,-.260199,
.296195,-.2295,
.312034,-.195534,
.321734,-.159334,
.325,-.122,
.325,.122,
.321734,.159334,
.312034,.195534,
.296195,.2295,
.2747,.260199,
.248199,.2867,
.2175,.308195,
.183534,.324034,
.147334,.333734,
.11,.337,
0.0,.337,
0.0*
%
%ADD20MACRO20*%
%AMMACRO25*
4,1,41,0.0,.45,
-.244,.45,
-.279833,.446797,
-.314566,.43742,
-.347143,.422154,
-.376574,.401463,
-.401965,.375976,
-.422544,.346467,
-.437687,.313833,
-.446932,.279065,
-.45,.244,
-.45,-.244,
-.446797,-.279833,
-.43742,-.314566,
-.422154,-.347143,
-.401463,-.376574,
-.375976,-.401965,
-.346467,-.422544,
-.313833,-.437687,
-.279065,-.446932,
-.244,-.45,
.244,-.45,
.279833,-.446797,
.314566,-.43742,
.347143,-.422154,
.376574,-.401463,
.401965,-.375976,
.422544,-.346467,
.437687,-.313833,
.446932,-.279065,
.45,-.244,
.45,.244,
.446797,.279833,
.43742,.314566,
.422154,.347143,
.401463,.376574,
.375976,.401965,
.346467,.422544,
.313833,.437687,
.279065,.446932,
.244,.45,
0.0,.45,
0.0*
%
%ADD25MACRO25*%
%AMMACRO15*
4,1,45,0.0,-.574,
.274,-.574,
.321783,-.57017,
.368174,-.5581,
.411765,-.538158,
.451231,-.510949,
.485372,-.477301,
.513152,-.438235,
.533726,-.394939,
.546469,-.348728,
.550995,-.301006,
.551,-.3,
.551,.3,
.54665,.347738,
.534075,.393995,
.51366,.437367,
.486023,.476534,
.452005,.510307,
.412639,.53766,
.369122,.557761,
.322775,.57,
.275006,.574005,
.274,.574,
-.274,.574,
-.321783,.57017,
-.368174,.5581,
-.411765,.538158,
-.451231,.510949,
-.485372,.477301,
-.513152,.438235,
-.533726,.394939,
-.546469,.348728,
-.550995,.301006,
-.551,.3,
-.551,-.3,
-.54665,-.347738,
-.534075,-.393995,
-.51366,-.437367,
-.486023,-.476534,
-.452005,-.510307,
-.412639,-.53766,
-.369122,-.557761,
-.322775,-.57,
-.275006,-.574005,
-.274,-.574,
0.0,-.574,
0.0*
%
%ADD15MACRO15*%
%ADD26C,.099*%
G75*
%LPD*%
G75*
G36*
G01X2296000Y2190000D02*
Y2245000D01*
X2328000D01*
Y2190000D01*
X2296000D01*
G37*
G54D10*
X1947200Y2219000D03*
X1959900D03*
X1972600D03*
X1985300D03*
X1998000D03*
X1947200Y2265000D03*
X1959900D03*
X1972600D03*
X1985300D03*
X1998000D03*
G54D20*
X2148000Y2393260D03*
X2284000Y2256760D03*
G54D11*
X1848000Y2207000D03*
X1852000Y2451000D03*
X2569000Y2204000D03*
G54D12*
X1965250Y2341150D03*
Y2324150D03*
X1948250Y2341150D03*
Y2324150D03*
G54D21*
X2230000Y2251500D03*
X2262760Y2274000D03*
X2311760Y2439000D03*
X2356260D03*
G54D22*
X2239240Y2251500D03*
X2272000Y2274000D03*
X2321000Y2439000D03*
X2365500D03*
G54D13*
X2002000Y2361500D03*
Y2350000D03*
Y2338500D03*
Y2327000D03*
Y2315500D03*
Y2304000D03*
Y2373000D03*
G54D23*
X2260000Y2254500D03*
G54D14*
X1991000Y2288000D03*
X1979500D03*
X1968000D03*
X1956500D03*
X1945000D03*
X1933500D03*
X1922000D03*
X1910500D03*
X1899000D03*
Y2389000D03*
X1910500D03*
X1922000D03*
X1933500D03*
X1945000D03*
X1956500D03*
X1968000D03*
X1979500D03*
X1991000D03*
G54D15*
X2003000Y2404000D03*
X1987000D03*
X2190000Y2238000D03*
X2174000D03*
X2191000Y2344000D03*
X2175000D03*
X2191000Y2286000D03*
X2175000D03*
X2190000Y2269000D03*
X2174000D03*
X2190000Y2253000D03*
X2174000D03*
X2187000Y2416000D03*
X2171000D03*
X2360000Y2251000D03*
X2376000D03*
G54D24*
X2272000Y2247000D03*
Y2252000D03*
Y2257000D03*
Y2262000D03*
X2248000Y2247000D03*
Y2252000D03*
Y2257000D03*
Y2262000D03*
G54D25*
X2307990Y2450000D03*
X2323000D03*
X2353990D03*
X2369000D03*
G54D16*
X2089230Y2216000D03*
Y2241400D03*
Y2266800D03*
Y2292200D03*
Y2317600D03*
Y2343000D03*
Y2368400D03*
X2063830Y2216000D03*
Y2241400D03*
Y2266800D03*
Y2292200D03*
Y2317600D03*
Y2343000D03*
Y2368400D03*
X2089230Y2393800D03*
Y2419200D03*
Y2444600D03*
X2063830Y2393800D03*
Y2419200D03*
Y2444600D03*
X2163600Y2444000D03*
X2189000D03*
X2521230Y2216000D03*
Y2241400D03*
Y2266800D03*
Y2292200D03*
Y2317600D03*
Y2343000D03*
Y2368400D03*
X2495830Y2216000D03*
Y2241400D03*
Y2266800D03*
Y2292200D03*
Y2317600D03*
Y2343000D03*
Y2368400D03*
X2521230Y2393800D03*
Y2419200D03*
Y2444600D03*
X2495830Y2393800D03*
Y2419200D03*
Y2444600D03*
G54D26*
G01X1830000Y2470000D02*
X1829980Y2190000D01*
X2583000D01*
Y2470000D01*
X1830000D01*
G54D17*
X2175000Y2317000D03*
X2191000D03*
X2175000Y2300000D03*
X2191000D03*
X2175500Y2374500D03*
X2191500D03*
X2360000Y2236670D03*
Y2222340D03*
Y2208010D03*
X2214000Y2236000D03*
X2230000D03*
X2214000Y2223500D03*
X2230000D03*
X2376000Y2236670D03*
Y2222340D03*
Y2208010D03*
G54D18*
X2164000Y2396000D03*
X2192000D03*
X2312000Y2211000D03*
G54D19*
X2148000Y2402500D03*
X2284000Y2266000D03*
M02*
